<svg width="52" height="52" viewBox="0 0 52 52" fill="none" xmlns="http://www.w3.org/2000/svg">
<path d="M14.14 26.8C15.5207 26.8 16.64 25.6807 16.64 24.3C16.6483 24.1802 16.6483 24.0599 16.64 23.94L20.28 21.7C21.1823 22.4148 22.4577 22.4148 23.36 21.7L26.72 24C26.7096 24.1332 26.7096 24.2669 26.72 24.4C26.8356 25.689 27.9159 26.6767 29.21 26.6767C30.5041 26.6767 31.5844 25.689 31.7 24.4C31.6999 24.0182 31.6109 23.6416 31.44 23.3L35.62 18.36C36.0383 18.5338 36.4871 18.6222 36.94 18.62C38.5058 18.6105 39.8677 17.5448 40.2532 16.0271C40.6388 14.5095 39.9508 12.9229 38.5793 12.1672C37.2079 11.4115 35.4991 11.6774 34.4221 12.814C33.3451 13.9507 33.1716 15.6713 34 17L29.9 22C29.2179 21.8223 28.4926 21.9384 27.9 22.32L24.28 20C24.28 20 24.28 19.86 24.28 19.78C24.3646 18.8372 23.9094 17.9274 23.104 17.4298C22.2987 16.9323 21.2813 16.9323 20.476 17.4298C19.6706 17.9274 19.2154 18.8372 19.3 19.78C19.3 19.78 19.3 19.9 19.3 19.96L15.54 22.28C14.6567 21.6544 13.4711 21.6683 12.6027 22.3145C11.7343 22.9606 11.3803 24.0922 11.7258 25.118C12.0712 26.1439 13.0376 26.8308 14.12 26.82L14.14 26.8Z" fill="#FA9441"/>
<rect x="12.28" y="30.4" width="3.68" height="8.22" fill="#FA9441"/>
<rect x="27.44" y="30.4" width="3.68" height="8.22" fill="#FA9441"/>
<rect x="35.02" y="23.2" width="3.68" height="15.38" fill="#FA9441"/>
<rect x="19.86" y="26.14" width="3.68" height="12.46" fill="#FA9441"/>
<path fill-rule="evenodd" clip-rule="evenodd" d="M26 49.7001C39.0892 49.7001 49.7 39.0892 49.7 26C49.7 12.9109 39.0892 2.30005 26 2.30005C12.9109 2.30005 2.3 12.9109 2.3 26C2.3 39.0892 12.9109 49.7001 26 49.7001Z" stroke="#FA9441" stroke-width="4"/>
</svg>
