<svg width="46" height="46" viewBox="0 0 46 46" fill="none" xmlns="http://www.w3.org/2000/svg">
<path d="M23 -0.000976562C10.3965 -0.000976562 0.142456 10.253 0.142456 22.8565C0.142456 35.46 10.3965 45.714 23 45.714C35.6035 45.714 45.8575 35.46 45.8575 22.8565C45.8575 10.253 35.6035 -0.000976562 23 -0.000976562ZM23 42.8565C11.9725 42.8565 2.99996 33.884 2.99996 22.8565C2.99996 11.829 11.9725 2.85652 23 2.85652C34.0275 2.85652 43 11.829 43 22.8565C43 33.884 34.0275 42.8565 23 42.8565Z" fill="#FA9441"/>
<path d="M23.3884 5.72197C20.6501 5.62041 18.0409 6.60672 16.0659 8.50907C14.0874 10.4114 12.9995 12.97 12.9995 15.7141H15.8569C15.8569 13.7551 16.6343 11.927 18.0464 10.5676C19.4565 9.20817 21.312 8.50312 23.2789 8.57732C26.9215 8.71599 29.9994 11.7922 30.1364 15.4348C30.2692 18.9485 27.7711 22.0873 24.3279 22.7338C22.7302 23.0346 21.572 24.4233 21.572 26.0385V34.2845H24.4294L24.4275 26.0385C24.4275 25.7944 24.6032 25.5893 24.8552 25.5424C29.6813 24.6362 33.1792 20.2434 32.9917 15.3254C32.7944 10.1379 28.5757 5.91943 23.3882 5.72193L23.3884 5.72197Z" fill="#FA9441"/>
</svg>
