<svg width="54" height="48" viewBox="0 0 54 48" fill="none" xmlns="http://www.w3.org/2000/svg">
<path fill-rule="evenodd" clip-rule="evenodd" d="M30.3281 39.5C30.9483 38.888 31.093 38.8515 31.7827 38.6778L31.7828 38.6778C31.8897 38.6509 32.0096 38.6207 32.1464 38.5845C32.7975 38.4122 33.3066 37.91 33.4809 37.2672C33.5038 37.1831 33.5248 37.1051 33.5443 37.0325C33.6742 36.5497 33.7392 36.3078 33.861 36.0991C33.9832 35.8896 34.1625 35.7134 34.5219 35.3604C34.5761 35.3071 34.6345 35.2498 34.6973 35.1877C35.1741 34.7172 35.3602 34.0313 35.1858 33.3886C35.1627 33.3034 35.1411 33.2247 35.121 33.1514C34.9891 32.6705 34.9231 32.4296 34.923 32.1887C34.9229 31.947 34.9892 31.7053 35.1219 31.221C35.1417 31.1487 35.163 31.0711 35.1858 30.9872C35.3602 30.3445 35.1741 29.6586 34.6973 29.1881C34.6349 29.1264 34.5768 29.0694 34.5229 29.0164C34.1628 28.6627 33.9833 28.4863 33.8609 28.2765C33.7392 28.0678 33.6742 27.826 33.5444 27.3437C33.5249 27.2711 33.5038 27.1929 33.4809 27.1086C33.3066 26.4659 32.7975 25.9636 32.1464 25.7913C32.0599 25.7684 31.9798 25.7474 31.9054 25.728C31.4165 25.5998 31.1722 25.5358 30.9604 25.4149C30.7489 25.2941 30.5698 25.1166 30.212 24.7617C30.1586 24.7088 30.1013 24.652 30.0394 24.5909C29.5627 24.1204 28.8675 23.9363 28.2164 24.1086C28.1302 24.1314 28.0504 24.1527 27.9763 24.1725C27.4894 24.3026 27.2454 24.3677 27.0014 24.3679C26.7565 24.368 26.5115 24.3026 26.0205 24.1716C25.9473 24.1521 25.8686 24.1311 25.7836 24.1086C25.1325 23.9363 24.4373 24.12 23.9606 24.5909C23.8983 24.6524 23.8407 24.7095 23.7872 24.7626C23.4305 25.1165 23.2517 25.2939 23.0406 25.4146C22.8286 25.5358 22.5838 25.5999 22.0933 25.7284C22.0194 25.7478 21.9399 25.7686 21.8541 25.7913C21.203 25.9636 20.6939 26.4659 20.5195 27.1086C20.4968 27.1922 20.476 27.2697 20.4566 27.3419C20.3267 27.8253 20.2616 28.0675 20.1398 28.2764C20.0175 28.486 19.8381 28.6623 19.4786 29.0154C19.4244 29.0687 19.366 29.1261 19.3031 29.1881C18.8264 29.6586 18.6398 30.3445 18.8147 30.9872C18.8378 31.0724 18.8594 31.1511 18.8795 31.2243C19.0113 31.7046 19.0773 31.9453 19.0775 32.186C19.0776 32.4278 19.0114 32.6696 18.8786 33.1543C18.8588 33.2265 18.8375 33.3042 18.8147 33.3881C18.6403 34.0309 18.8264 34.7168 19.3031 35.1877C19.366 35.2498 19.4243 35.3071 19.4786 35.3604C19.8379 35.7134 20.0173 35.8896 20.1395 36.0991C20.2613 36.3078 20.3263 36.5497 20.4562 37.0325C20.4757 37.1051 20.4967 37.1831 20.5195 37.2672C20.6939 37.91 21.203 38.4122 21.8541 38.5845C21.9717 38.6156 22.0771 38.6426 22.1726 38.6671C22.9284 38.8611 23.0588 38.8946 23.6719 39.5C24.292 40.1122 25.2581 40.2218 26.0034 39.7645C26.6118 39.39 27.3886 39.39 27.997 39.7645C28.7419 40.2218 29.708 40.1122 30.3281 39.5ZM22.2462 40.2425C22.3018 40.2784 22.3495 40.3264 22.4276 40.4048L22.4276 40.4049C22.4622 40.4396 22.5027 40.4803 22.5525 40.5286C23.1989 41.155 24.0577 41.5 24.9717 41.5C25.5548 41.5 26.1188 41.339 26.6269 41.0645L24.187 46.8654C23.9813 47.355 23.3231 47.4745 22.9481 47.0909L21.2494 45.3509L18.7795 45.4422C18.2348 45.4622 17.8505 44.9304 18.0563 44.4409L20.183 39.3845C20.5373 39.6513 20.9292 39.874 21.375 39.99C21.5385 40.0324 21.6689 40.0647 21.7746 40.0908L21.7749 40.0909C22.0513 40.1593 22.1584 40.1859 22.2462 40.2425ZM33.817 39.3845L35.9438 44.4409C36.1495 44.93 35.7652 45.4622 35.2205 45.4422L32.7506 45.3509L31.0514 47.0909C30.6769 47.4745 30.0183 47.355 29.8125 46.8654L27.3727 41.0645C27.8808 41.3386 28.4447 41.5 29.0278 41.5C29.9419 41.5 30.8011 41.155 31.4475 40.5286C31.4987 40.479 31.5399 40.4374 31.575 40.4021C31.6506 40.3259 31.6973 40.2789 31.7515 40.2436C31.8389 40.1867 31.946 40.1602 32.2255 40.0909C32.3312 40.0647 32.4616 40.0324 32.625 39.99C33.0708 39.874 33.4627 39.6518 33.817 39.3845ZM27 27.679C24.5578 27.679 22.5778 29.6331 22.5778 32.0436C22.5778 34.454 24.5578 36.4081 27 36.4081C29.4422 36.4081 31.4222 34.454 31.4222 32.0436C31.4222 29.6331 29.4422 27.679 27 27.679Z" fill="#FA9441"/>
<path fill-rule="evenodd" clip-rule="evenodd" d="M12.3281 15.5C12.9483 14.888 13.093 14.8515 13.7827 14.6778L13.7828 14.6778C13.8897 14.6509 14.0096 14.6207 14.1464 14.5845C14.7975 14.4122 15.3066 13.91 15.4809 13.2672C15.5038 13.1831 15.5248 13.1051 15.5443 13.0325C15.6742 12.5497 15.7392 12.3078 15.861 12.0991C15.9832 11.8896 16.1625 11.7134 16.5219 11.3604C16.5761 11.3071 16.6345 11.2498 16.6973 11.1877C17.1741 10.7172 17.3602 10.0313 17.1858 9.38859C17.1627 9.30342 17.1411 9.22465 17.121 9.15145C16.9891 8.6705 16.9231 8.42962 16.923 8.18872C16.9229 7.94701 16.9892 7.70527 17.1219 7.22096C17.1417 7.14872 17.163 7.07108 17.1858 6.98723C17.3602 6.3445 17.1741 5.65859 16.6973 5.18814C16.6349 5.12644 16.5768 5.06944 16.5229 5.01642C16.1628 4.66269 15.9833 4.48628 15.8609 4.2765C15.7392 4.06778 15.6742 3.82602 15.5444 3.34373C15.5249 3.27105 15.5038 3.19291 15.4809 3.10859C15.3066 2.46587 14.7975 1.96359 14.1464 1.79132C14.0599 1.76843 13.9798 1.74745 13.9054 1.72795C13.4165 1.59984 13.1722 1.53583 12.9604 1.41489C12.7489 1.29411 12.5698 1.11655 12.212 0.761688C12.1586 0.708816 12.1013 0.652008 12.0394 0.590865C11.5627 0.12041 10.8675 -0.0636805 10.2164 0.108592C10.1302 0.131398 10.0504 0.1527 9.97628 0.172498C9.48936 0.302551 9.24541 0.367707 9.00143 0.367853C8.75647 0.368 8.51148 0.302621 8.02052 0.171602C7.94729 0.152059 7.86859 0.131056 7.78359 0.108592C7.1325 -0.0636805 6.43735 0.119956 5.96063 0.590865C5.89832 0.652378 5.84074 0.709504 5.78717 0.762648C5.43048 1.11652 5.25174 1.29386 5.04062 1.41456C4.82855 1.53581 4.58382 1.59992 4.09326 1.72843C4.01935 1.74779 3.93986 1.76862 3.85406 1.79132C3.20297 1.96359 2.69391 2.46587 2.51953 3.10859C2.49685 3.1922 2.47601 3.26973 2.45662 3.34189C2.3267 3.82534 2.26164 4.06745 2.13976 4.27642C2.0175 4.48604 1.83806 4.66232 1.47861 5.01544C1.42436 5.06873 1.366 5.12606 1.30313 5.18814C0.826407 5.65859 0.639845 6.3445 0.814689 6.98723C0.837813 7.07236 0.859413 7.15109 0.879487 7.22425C1.01128 7.7046 1.07731 7.94529 1.07748 8.18603C1.07765 8.42779 1.01138 8.6696 0.878564 9.15425C0.858753 9.22654 0.837461 9.30424 0.814689 9.38814C0.640314 10.0309 0.826407 10.7168 1.30313 11.1877C1.366 11.2498 1.42434 11.3071 1.47859 11.3604C1.83794 11.7134 2.01729 11.8896 2.1395 12.0991C2.26127 12.3078 2.32632 12.5497 2.45617 13.0325C2.47569 13.1051 2.49667 13.1831 2.51953 13.2672C2.69391 13.91 3.20297 14.4122 3.85406 14.5845C3.97169 14.6156 4.07711 14.6426 4.17256 14.6671C4.92838 14.8611 5.05883 14.8946 5.67188 15.5C6.29203 16.1122 7.25813 16.2218 8.00344 15.7645C8.61185 15.39 9.38863 15.39 9.99703 15.7645C10.7419 16.2218 11.708 16.1122 12.3281 15.5ZM4.24617 16.2425C4.30175 16.2784 4.34953 16.3264 4.42757 16.4048L4.42762 16.4049C4.4622 16.4396 4.50272 16.4803 4.5525 16.5286C5.19891 17.155 6.05766 17.5 6.97172 17.5C7.55484 17.5 8.11875 17.339 8.62688 17.0645L6.18703 22.8654C5.98125 23.355 5.32313 23.4745 4.94813 23.0909L3.24938 21.3509L0.779532 21.4422C0.234845 21.4622 -0.14953 20.9304 0.0562511 20.4409L2.18297 15.3845C2.53734 15.6513 2.92922 15.874 3.375 15.99C3.53851 16.0324 3.66892 16.0647 3.77461 16.0908L3.77491 16.0909C4.05125 16.1593 4.15844 16.1859 4.24617 16.2425ZM15.817 15.3845L17.9438 20.4409C18.1495 20.93 17.7652 21.4622 17.2205 21.4422L14.7506 21.3509L13.0514 23.0909C12.6769 23.4745 12.0183 23.355 11.8125 22.8654L9.37266 17.0645C9.88078 17.3386 10.4447 17.5 11.0278 17.5C11.9419 17.5 12.8011 17.155 13.4475 16.5286C13.4987 16.479 13.5399 16.4374 13.575 16.4021C13.6506 16.3259 13.6973 16.2789 13.7515 16.2436C13.8389 16.1867 13.946 16.1602 14.2255 16.0909C14.3312 16.0647 14.4616 16.0324 14.625 15.99C15.0708 15.874 15.4627 15.6518 15.817 15.3845ZM9 3.67905C6.55781 3.67905 4.57781 5.63314 4.57781 8.04359C4.57781 10.454 6.55781 12.4081 9 12.4081C11.4422 12.4081 13.4222 10.454 13.4222 8.04359C13.4222 5.63314 11.4422 3.67905 9 3.67905Z" fill="#FA9441"/>
<path fill-rule="evenodd" clip-rule="evenodd" d="M48.3281 15.5C48.9483 14.888 49.093 14.8515 49.7827 14.6778L49.7828 14.6778C49.8897 14.6509 50.0096 14.6207 50.1464 14.5845C50.7975 14.4122 51.3066 13.91 51.4809 13.2672C51.5038 13.1831 51.5248 13.1051 51.5443 13.0325C51.6742 12.5497 51.7392 12.3078 51.861 12.0991C51.9832 11.8896 52.1625 11.7134 52.5219 11.3604C52.5761 11.3071 52.6345 11.2498 52.6973 11.1877C53.1741 10.7172 53.3602 10.0313 53.1858 9.38859C53.1627 9.30342 53.1411 9.22465 53.121 9.15145C52.9891 8.6705 52.9231 8.42962 52.923 8.18872C52.9229 7.94701 52.9892 7.70527 53.1219 7.22096C53.1417 7.14872 53.163 7.07108 53.1858 6.98723C53.3602 6.3445 53.1741 5.65859 52.6973 5.18814C52.6349 5.12644 52.5768 5.06944 52.5229 5.01642C52.1628 4.66269 51.9833 4.48628 51.8609 4.2765C51.7392 4.06778 51.6742 3.82602 51.5444 3.34373C51.5249 3.27105 51.5038 3.19291 51.4809 3.10859C51.3066 2.46587 50.7975 1.96359 50.1464 1.79132C50.0599 1.76843 49.9798 1.74745 49.9054 1.72795C49.4165 1.59984 49.1722 1.53583 48.9604 1.41489C48.7489 1.29411 48.5698 1.11655 48.212 0.761688C48.1586 0.708816 48.1013 0.652008 48.0394 0.590865C47.5627 0.12041 46.8675 -0.0636805 46.2164 0.108592C46.1302 0.131398 46.0504 0.1527 45.9763 0.172498C45.4894 0.302551 45.2454 0.367707 45.0014 0.367853C44.7565 0.368 44.5115 0.302621 44.0205 0.171602C43.9473 0.152059 43.8686 0.131056 43.7836 0.108592C43.1325 -0.0636805 42.4373 0.119956 41.9606 0.590865C41.8983 0.652378 41.8407 0.709504 41.7872 0.762648C41.4305 1.11652 41.2517 1.29386 41.0406 1.41456C40.8286 1.53581 40.5838 1.59992 40.0933 1.72843C40.0194 1.74779 39.9399 1.76862 39.8541 1.79132C39.203 1.96359 38.6939 2.46587 38.5195 3.10859C38.4968 3.1922 38.476 3.26973 38.4566 3.34189C38.3267 3.82534 38.2616 4.06745 38.1398 4.27642C38.0175 4.48604 37.8381 4.66232 37.4786 5.01544C37.4244 5.06873 37.366 5.12606 37.3031 5.18814C36.8264 5.65859 36.6398 6.3445 36.8147 6.98723C36.8378 7.07236 36.8594 7.15109 36.8795 7.22425C37.0113 7.7046 37.0773 7.94529 37.0775 8.18603C37.0776 8.42779 37.0114 8.6696 36.8786 9.15425C36.8588 9.22654 36.8375 9.30424 36.8147 9.38814C36.6403 10.0309 36.8264 10.7168 37.3031 11.1877C37.366 11.2498 37.4243 11.3071 37.4786 11.3604C37.8379 11.7134 38.0173 11.8896 38.1395 12.0991C38.2613 12.3078 38.3263 12.5497 38.4562 13.0325C38.4757 13.1051 38.4967 13.1831 38.5195 13.2672C38.6939 13.91 39.203 14.4122 39.8541 14.5845C39.9717 14.6156 40.0771 14.6426 40.1726 14.6671C40.9284 14.8611 41.0588 14.8946 41.6719 15.5C42.292 16.1122 43.2581 16.2218 44.0034 15.7645C44.6118 15.39 45.3886 15.39 45.997 15.7645C46.7419 16.2218 47.708 16.1122 48.3281 15.5ZM40.2462 16.2425C40.3018 16.2784 40.3495 16.3264 40.4276 16.4048L40.4276 16.4049C40.4622 16.4396 40.5027 16.4803 40.5525 16.5286C41.1989 17.155 42.0577 17.5 42.9717 17.5C43.5548 17.5 44.1188 17.339 44.6269 17.0645L42.187 22.8654C41.9813 23.355 41.3231 23.4745 40.9481 23.0909L39.2494 21.3509L36.7795 21.4422C36.2348 21.4622 35.8505 20.9304 36.0563 20.4409L38.183 15.3845C38.5373 15.6513 38.9292 15.874 39.375 15.99C39.5385 16.0324 39.6689 16.0647 39.7746 16.0908L39.7749 16.0909C40.0513 16.1593 40.1584 16.1859 40.2462 16.2425ZM51.817 15.3845L53.9438 20.4409C54.1495 20.93 53.7652 21.4622 53.2205 21.4422L50.7506 21.3509L49.0514 23.0909C48.6769 23.4745 48.0183 23.355 47.8125 22.8654L45.3727 17.0645C45.8808 17.3386 46.4447 17.5 47.0278 17.5C47.9419 17.5 48.8011 17.155 49.4475 16.5286C49.4987 16.479 49.5399 16.4374 49.575 16.4021C49.6506 16.3259 49.6973 16.2789 49.7515 16.2436C49.8389 16.1867 49.946 16.1602 50.2255 16.0909C50.3312 16.0647 50.4616 16.0324 50.625 15.99C51.0708 15.874 51.4627 15.6518 51.817 15.3845ZM45 3.67905C42.5578 3.67905 40.5778 5.63314 40.5778 8.04359C40.5778 10.454 42.5578 12.4081 45 12.4081C47.4422 12.4081 49.4222 10.454 49.4222 8.04359C49.4222 5.63314 47.4422 3.67905 45 3.67905Z" fill="#FA9441"/>
</svg>
