<svg width="34" height="34" viewBox="0 0 34 34" fill="none" xmlns="http://www.w3.org/2000/svg">
<path d="M15.5938 0.125H18.4062C18.6562 0.125 18.7812 0.25 18.7812 0.5V33.5C18.7812 33.75 18.6562 33.875 18.4062 33.875H15.5938C15.3438 33.875 15.2188 33.75 15.2188 33.5V0.5C15.2188 0.25 15.3438 0.125 15.5938 0.125Z" fill="#FA9441"/>
<path d="M1.25 15.2188H32.75C33 15.2188 33.125 15.3438 33.125 15.5938V18.4062C33.125 18.6562 33 18.7812 32.75 18.7812H1.25C1 18.7812 0.875 18.6562 0.875 18.4062V15.5938C0.875 15.3438 1 15.2188 1.25 15.2188Z" fill="#FA9441"/>
</svg>
