<svg width="50" height="57" viewBox="0 0 50 57" fill="none" xmlns="http://www.w3.org/2000/svg">
<path d="M6.98454 41.6525H4.28692C2.44379 41.6411 0.952453 40.1498 0.94104 38.3066V4.84783C0.952453 3.0047 2.44379 1.51337 4.28692 1.50195H30.092C32.1152 1.52456 33.7499 3.15919 33.7725 5.18242" stroke="#FA9441" stroke-width="1.56838"/>
<path d="M13.3417 47.6751H10.665C8.82187 47.6637 7.33054 46.1724 7.31912 44.3293V9.15569C7.33054 7.31256 8.82187 5.82123 10.665 5.80981H37.8503C39.6934 5.82123 41.1847 7.31256 41.1962 9.15569V11.8324" stroke="#FA9441" stroke-width="1.56838"/>
<path fill-rule="evenodd" clip-rule="evenodd" d="M45.504 55.3705H16.7294C14.8863 55.3591 13.3949 53.8678 13.3835 52.0246V15.5336C13.3949 13.6905 14.8863 12.1992 16.7294 12.1877H45.504C47.3471 12.1992 48.8384 13.6905 48.8498 15.5336V52.3592C48.8296 53.2108 48.4593 54.0164 47.8262 54.5863C47.193 55.1561 46.353 55.4398 45.504 55.3705V55.3705Z" stroke="#FA9441" stroke-width="1.56838"/>
<path d="M17.0222 41.987H44.4793" stroke="#FA9441" stroke-width="1.56838"/>
<path d="M17.0222 48.6789H44.4793" stroke="#FA9441" stroke-width="1.56838"/>
<path d="M17.0222 21.8908H30.7612" stroke="#FA9441" stroke-width="1.56838"/>
</svg>
