<svg width="42" height="41" viewBox="0 0 42 41" fill="none" xmlns="http://www.w3.org/2000/svg">
<path fill-rule="evenodd" clip-rule="evenodd" d="M29 4L37 0L41 4L37 12H33L28.66 16.34L24.66 12.34L29 8V4ZM40.42 36.58L37.58 39.42C36.7999 40.1954 35.5401 40.1954 34.76 39.42L11 15.7C10.3496 15.8884 9.67703 15.9893 9 16C6.41639 15.9982 3.99271 14.7487 2.49252 12.6453C0.992332 10.5418 0.600325 7.84336 1.44 5.4L6.52 10.48L7.58 9.42L10.42 6.58L11.48 5.52L6.4 0.44C8.84335 -0.399674 11.5418 -0.00766663 13.6453 1.49252C15.7487 2.99271 16.9982 5.41639 17 8C16.9893 8.67704 16.8884 9.34962 16.7 10L40.42 33.76C41.1954 34.5401 41.1954 35.7999 40.42 36.58ZM1.58 33.76C0.804551 34.5401 0.804551 35.7999 1.58 36.58L4.42 39.42C5.20007 40.1954 6.45992 40.1954 7.24 39.42L18.18 28.5L12.52 22.84L1.58 33.76Z" fill="#FA9441"/>
</svg>
