<svg width="48" height="35" viewBox="0 0 48 35" fill="none" xmlns="http://www.w3.org/2000/svg">
<path fill-rule="evenodd" clip-rule="evenodd" d="M32.4 9.14773C32.4 13.7639 28.6425 17.5 24 17.5C19.3575 17.5 15.6 13.7639 15.6 9.14773C15.6 4.53161 19.3575 0.795456 24 0.795456C28.6425 0.795456 32.4 4.53161 32.4 9.14773ZM12 10.3409C12 12.9734 9.8475 15.1136 7.2 15.1136C4.5525 15.1136 2.4 12.9734 2.4 10.3409C2.4 7.70845 4.5525 5.56818 7.2 5.56818C9.8475 5.56818 12 7.70845 12 10.3409ZM45.6 10.3409C45.6 12.9734 43.4475 15.1136 40.8 15.1136C38.1525 15.1136 36 12.9734 36 10.3409C36 7.70845 38.1525 5.56818 40.8 5.56818C43.4475 5.56818 45.6 7.70845 45.6 10.3409ZM43.2 17.5H38.4C37.08 17.5 35.8875 18.0295 35.0175 18.8871C38.04 20.5352 40.185 23.5107 40.65 27.0455H45.6C46.9275 27.0455 48 25.979 48 24.6591V22.2727C48 19.6403 45.8475 17.5 43.2 17.5ZM29.76 19.8864H29.1375C27.5775 20.6321 25.845 21.0795 24 21.0795C22.155 21.0795 20.43 20.6321 18.8625 19.8864H18.24C13.47 19.8864 9.6 23.7344 9.6 28.4773V30.625C9.6 32.6012 11.2125 34.2045 13.2 34.2045H34.8C36.7875 34.2045 38.4 32.6012 38.4 30.625V28.4773C38.4 23.7344 34.53 19.8864 29.76 19.8864ZM9.6 17.5C10.92 17.5 12.1125 18.0295 12.9825 18.8871C9.96 20.5352 7.815 23.5107 7.3425 27.0455H2.4C1.0725 27.0455 0 25.979 0 24.6591V22.2727C0 19.6403 2.1525 17.5 4.8 17.5H9.6Z" fill="#FA9441"/>
</svg>
