<?xml version="1.0" encoding="UTF-8"?>
<svg width="65px" height="65px" viewBox="0 0 65 65" version="1.1" xmlns="http://www.w3.org/2000/svg" xmlns:xlink="http://www.w3.org/1999/xlink">
    <!-- Generator: sketchtool 63.1 (101010) - https://sketch.com -->
    <title>7140FC30-93F9-4889-9A8D-3A64E8C62357</title>
    <desc>Created with sketchtool.</desc>
    <g id="Layouts" stroke="none" stroke-width="1" fill="none" fill-rule="evenodd">
        <g id="1.0-Challenge—Listing-Page_Desktop-HD-v8" transform="translate(-1090.000000, -4075.000000)" fill="#2C608A" fill-rule="nonzero">
            <g id="noun_account_3109717" transform="translate(1090.000000, 4075.000000)">
                <path d="M65,65 L60.6550802,65 C59.5218018,50.3284037 47.2544128,39 32.5,39 C17.7455872,39 5.47819817,50.3284037 4.34491979,65 L0,65 C1.13562713,47.9316987 15.3484246,34.6662302 32.5,34.6662302 C49.6515754,34.6662302 63.8643729,47.9316987 65,65 Z M17.2927807,15.1666667 C17.2927807,6.79034796 24.1012847,0 32.5,0 C40.8987153,0 47.7072193,6.79034796 47.7072193,15.1666667 C47.7072193,23.5429854 40.8987153,30.3333333 32.5,30.3333333 C24.1052055,30.3239004 17.3022389,23.539075 17.2927807,15.1666667 Z M21.6377005,15.1666667 C21.6377005,21.1497515 26.5009177,26 32.5,26 C38.4990823,26 43.3622995,21.1497515 43.3622995,15.1666667 C43.3622995,9.18358188 38.4990823,4.33333333 32.5,4.33333333 C26.5036722,4.33996048 21.6443454,9.18632908 21.6377005,15.1666667 Z" id="Shape"></path>
            </g>
        </g>
    </g>
</svg>