<svg width="70" height="70" viewBox="0 0 70 70" fill="none" xmlns="http://www.w3.org/2000/svg">
<rect width="70" height="70" fill="white"/>
<circle cx="35" cy="35" r="33" fill="#C4C4C4"/>
<path d="M52.9821 54.25H51.2857V15.0625C51.2857 13.9234 50.3743 13 49.25 13H20.75C19.6257 13 18.7143 13.9234 18.7143 15.0625V54.25H17.0179C16.4557 54.25 16 54.7117 16 55.2812V57H54V55.2812C54 54.7117 53.5443 54.25 52.9821 54.25ZM26.8571 19.5312C26.8571 18.9617 27.3129 18.5 27.875 18.5H31.2679C31.83 18.5 32.2857 18.9617 32.2857 19.5312V22.9688C32.2857 23.5383 31.83 24 31.2679 24H27.875C27.3129 24 26.8571 23.5383 26.8571 22.9688V19.5312ZM26.8571 27.7812C26.8571 27.2117 27.3129 26.75 27.875 26.75H31.2679C31.83 26.75 32.2857 27.2117 32.2857 27.7812V31.2188C32.2857 31.7883 31.83 32.25 31.2679 32.25H27.875C27.3129 32.25 26.8571 31.7883 26.8571 31.2188V27.7812ZM31.2679 40.5H27.875C27.3129 40.5 26.8571 40.0383 26.8571 39.4688V36.0312C26.8571 35.4617 27.3129 35 27.875 35H31.2679C31.83 35 32.2857 35.4617 32.2857 36.0312V39.4688C32.2857 40.0383 31.83 40.5 31.2679 40.5ZM37.7143 54.25H32.2857V47.0312C32.2857 46.4617 32.7415 46 33.3036 46H36.6964C37.2585 46 37.7143 46.4617 37.7143 47.0312V54.25ZM43.1429 39.4688C43.1429 40.0383 42.6871 40.5 42.125 40.5H38.7321C38.17 40.5 37.7143 40.0383 37.7143 39.4688V36.0312C37.7143 35.4617 38.17 35 38.7321 35H42.125C42.6871 35 43.1429 35.4617 43.1429 36.0312V39.4688ZM43.1429 31.2188C43.1429 31.7883 42.6871 32.25 42.125 32.25H38.7321C38.17 32.25 37.7143 31.7883 37.7143 31.2188V27.7812C37.7143 27.2117 38.17 26.75 38.7321 26.75H42.125C42.6871 26.75 43.1429 27.2117 43.1429 27.7812V31.2188ZM43.1429 22.9688C43.1429 23.5383 42.6871 24 42.125 24H38.7321C38.17 24 37.7143 23.5383 37.7143 22.9688V19.5312C37.7143 18.9617 38.17 18.5 38.7321 18.5H42.125C42.6871 18.5 43.1429 18.9617 43.1429 19.5312V22.9688Z" fill="white"/>
</svg>
