<svg width="606" height="710" viewBox="0 0 606 710" fill="none" xmlns="http://www.w3.org/2000/svg">
<rect x="1.5" y="1.5" width="603" height="707" rx="1.5" fill="white" stroke="#979797" stroke-width="3"/>
<path d="M439.784 292.272C440.6 292.272 441.323 292.443 441.952 292.784C442.581 293.12 443.088 293.571 443.472 294.136C443.856 294.701 444.083 295.323 444.152 296H442.576C442.491 295.547 442.328 295.136 442.088 294.768C441.848 294.4 441.533 294.107 441.144 293.888C440.755 293.669 440.288 293.56 439.744 293.56C439.045 293.56 438.453 293.725 437.968 294.056C437.488 294.381 437.123 294.885 436.872 295.568C436.627 296.251 436.504 297.125 436.504 298.192C436.504 299.803 436.779 300.987 437.328 301.744C437.883 302.496 438.688 302.872 439.744 302.872C440.288 302.872 440.755 302.757 441.144 302.528C441.533 302.299 441.848 301.992 442.088 301.608C442.328 301.224 442.491 300.808 442.576 300.36H444.152C444.093 300.851 443.96 301.325 443.752 301.784C443.549 302.237 443.269 302.643 442.912 303C442.555 303.357 442.115 303.64 441.592 303.848C441.075 304.056 440.472 304.16 439.784 304.16C438.744 304.16 437.856 303.923 437.12 303.448C436.389 302.973 435.829 302.291 435.44 301.4C435.056 300.509 434.864 299.435 434.864 298.176C434.864 296.923 435.056 295.856 435.44 294.976C435.824 294.096 436.381 293.427 437.112 292.968C437.848 292.504 438.739 292.272 439.784 292.272ZM449.496 304.16C448.734 304.16 448.067 303.997 447.496 303.672C446.926 303.341 446.483 302.859 446.168 302.224C445.854 301.589 445.696 300.813 445.696 299.896C445.696 299.032 445.843 298.275 446.136 297.624C446.43 296.973 446.859 296.469 447.424 296.112C447.995 295.749 448.686 295.568 449.496 295.568C450.259 295.568 450.92 295.736 451.48 296.072C452.046 296.403 452.483 296.891 452.792 297.536C453.102 298.181 453.256 298.968 453.256 299.896C453.256 300.739 453.112 301.48 452.824 302.12C452.542 302.76 452.12 303.261 451.56 303.624C451.006 303.981 450.318 304.16 449.496 304.16ZM449.496 302.992C449.992 302.992 450.411 302.867 450.752 302.616C451.094 302.365 451.352 302.005 451.528 301.536C451.704 301.067 451.792 300.509 451.792 299.864C451.792 299.272 451.715 298.741 451.56 298.272C451.406 297.797 451.158 297.421 450.816 297.144C450.48 296.867 450.04 296.728 449.496 296.728C448.995 296.728 448.571 296.853 448.224 297.104C447.878 297.349 447.614 297.707 447.432 298.176C447.256 298.645 447.168 299.208 447.168 299.864C447.168 300.445 447.248 300.973 447.408 301.448C447.568 301.923 447.819 302.299 448.16 302.576C448.502 302.853 448.947 302.992 449.496 302.992ZM455.193 304V295.728H456.625V296.928C456.758 296.699 456.942 296.483 457.177 296.28C457.417 296.077 457.705 295.915 458.041 295.792C458.382 295.669 458.774 295.608 459.217 295.608C459.739 295.608 460.219 295.712 460.657 295.92C461.099 296.128 461.451 296.453 461.713 296.896C461.979 297.333 462.113 297.899 462.113 298.592V304H460.633V298.736C460.633 298.091 460.462 297.613 460.121 297.304C459.785 296.989 459.347 296.832 458.809 296.832C458.435 296.832 458.086 296.893 457.761 297.016C457.435 297.133 457.171 297.315 456.969 297.56C456.766 297.8 456.665 298.104 456.665 298.472V304H455.193ZM468.239 296.808H466.375V301.952C466.375 302.245 466.404 302.461 466.463 302.6C466.527 302.733 466.631 302.819 466.775 302.856C466.924 302.893 467.127 302.912 467.383 302.912H468.287V303.904C468.186 303.941 468.031 303.973 467.823 304C467.62 304.027 467.367 304.04 467.063 304.04C466.492 304.04 466.05 303.963 465.735 303.808C465.42 303.653 465.199 303.424 465.071 303.12C464.948 302.816 464.887 302.443 464.887 302V296.808H463.543V295.728H464.927L465.287 293.32H466.375V295.72H468.239V296.808ZM472.59 304.16C472.057 304.16 471.585 304.067 471.174 303.88C470.763 303.688 470.441 303.413 470.206 303.056C469.977 302.699 469.862 302.267 469.862 301.76C469.862 300.843 470.182 300.16 470.822 299.712C471.462 299.264 472.489 299.024 473.902 298.992L475.382 298.952V298.304C475.382 297.797 475.23 297.397 474.926 297.104C474.622 296.805 474.15 296.656 473.51 296.656C473.035 296.661 472.617 296.773 472.254 296.992C471.897 297.211 471.665 297.568 471.558 298.064H470.254C470.286 297.525 470.438 297.072 470.71 296.704C470.982 296.331 471.361 296.048 471.846 295.856C472.337 295.664 472.915 295.568 473.582 295.568C474.302 295.568 474.899 295.669 475.374 295.872C475.854 296.075 476.211 296.373 476.446 296.768C476.686 297.163 476.806 297.648 476.806 298.224V304H475.542L475.438 302.448C475.118 303.093 474.71 303.541 474.214 303.792C473.723 304.037 473.182 304.16 472.59 304.16ZM473.038 303.096C473.315 303.096 473.59 303.045 473.862 302.944C474.139 302.843 474.393 302.707 474.622 302.536C474.851 302.36 475.033 302.165 475.166 301.952C475.305 301.733 475.377 301.509 475.382 301.28V299.864L474.15 299.888C473.521 299.899 472.993 299.963 472.566 300.08C472.145 300.197 471.827 300.381 471.614 300.632C471.406 300.883 471.302 301.211 471.302 301.616C471.302 302.08 471.462 302.443 471.782 302.704C472.107 302.965 472.526 303.096 473.038 303.096ZM482.629 295.568C483.221 295.568 483.755 295.683 484.229 295.912C484.704 296.136 485.091 296.456 485.389 296.872C485.693 297.288 485.883 297.779 485.957 298.344H484.645C484.597 298.056 484.485 297.792 484.309 297.552C484.139 297.312 483.912 297.12 483.629 296.976C483.347 296.832 483.016 296.76 482.637 296.76C481.928 296.76 481.352 297.016 480.909 297.528C480.467 298.04 480.245 298.824 480.245 299.88C480.245 300.835 480.448 301.6 480.853 302.176C481.264 302.747 481.867 303.032 482.661 303.032C483.04 303.032 483.368 302.96 483.645 302.816C483.928 302.667 484.155 302.472 484.325 302.232C484.496 301.987 484.605 301.725 484.653 301.448H485.941C485.872 302.003 485.685 302.483 485.381 302.888C485.077 303.293 484.688 303.608 484.213 303.832C483.744 304.051 483.216 304.16 482.629 304.16C481.888 304.16 481.229 303.997 480.653 303.672C480.083 303.347 479.635 302.867 479.309 302.232C478.984 301.597 478.821 300.819 478.821 299.896C478.821 299.032 478.968 298.277 479.261 297.632C479.56 296.981 479.992 296.475 480.557 296.112C481.128 295.749 481.819 295.568 482.629 295.568ZM491.895 296.808H490.031V301.952C490.031 302.245 490.061 302.461 490.119 302.6C490.183 302.733 490.287 302.819 490.431 302.856C490.581 302.893 490.783 302.912 491.039 302.912H491.943V303.904C491.842 303.941 491.687 303.973 491.479 304C491.277 304.027 491.023 304.04 490.719 304.04C490.149 304.04 489.706 303.963 489.391 303.808C489.077 303.653 488.855 303.424 488.727 303.12C488.605 302.816 488.543 302.443 488.543 302V296.808H487.199V295.728H488.583L488.943 293.32H490.031V295.72H491.895V296.808Z" fill="black"/>
<path fill-rule="evenodd" clip-rule="evenodd" d="M50.8432 31.3684V24.9867C50.8432 24.658 50.9311 24.3824 51.1068 24.16C51.2826 23.9376 51.511 23.7716 51.7922 23.6621C52.0734 23.5525 52.3642 23.4977 52.6646 23.4977C53.1247 23.4977 53.5161 23.6186 53.8388 23.8603C54.1616 24.102 54.3229 24.4485 54.3229 24.8997V31.3684H57.1317V24.4839C57.1317 23.8071 56.9735 23.2334 56.6572 22.7628C56.3408 22.2923 55.9222 21.9329 55.4014 21.6847C54.8805 21.4365 54.3038 21.3125 53.6711 21.3125C53.1471 21.3125 52.7029 21.3898 52.3386 21.5445C51.9744 21.6992 51.6708 21.891 51.4279 22.1198C51.1851 22.3487 50.9838 22.5791 50.824 22.8112V17H48.0441V31.3684H50.8432ZM40.2789 31.5627C41.2503 31.5627 42.0779 31.4274 42.7617 31.1566C43.4455 30.8859 44.0047 30.5153 44.4392 30.0447C44.8738 29.5741 45.2093 29.0375 45.4458 28.4348C45.6822 27.8321 45.842 27.1987 45.9251 26.5348H42.9918C42.9023 27.0247 42.7393 27.4743 42.5029 27.8836C42.2664 28.293 41.9565 28.6217 41.573 28.8699C41.1896 29.1181 40.7294 29.2421 40.1926 29.2421C39.2212 29.2421 38.4591 28.8538 37.9063 28.077C37.3535 27.3002 37.0771 26.0416 37.0771 24.3012C37.0771 23.1473 37.2018 22.2191 37.451 21.5165C37.7002 20.8138 38.0581 20.3046 38.5246 19.9887C38.9912 19.6729 39.5472 19.5149 40.1926 19.5149C40.7294 19.5149 41.1896 19.6229 41.573 19.8389C41.9565 20.0548 42.2664 20.3513 42.5029 20.7284C42.7393 21.1055 42.9023 21.5358 42.9918 22.0193H45.9251C45.8356 21.1039 45.5401 20.282 45.0384 19.5536C44.5367 18.8252 43.8785 18.2499 43.0636 17.8277C42.2488 17.4055 41.3206 17.1943 40.2789 17.1943C38.9816 17.1943 37.8632 17.478 36.9238 18.0452C35.9843 18.6125 35.2622 19.4231 34.7573 20.477C34.2524 21.531 34 22.7928 34 24.2625C34 25.7258 34.254 27.0053 34.7621 28.1012C35.2702 29.197 35.9939 30.0479 36.9333 30.6538C37.8728 31.2598 38.988 31.5627 40.2789 31.5627ZM64.0768 31.1448C63.5687 31.422 62.9696 31.5606 62.2794 31.5606C61.6467 31.5606 61.0779 31.4413 60.573 31.2028C60.0682 30.9643 59.6688 30.6178 59.3748 30.1634C59.0808 29.7089 58.9338 29.1562 58.9338 28.5051C58.9338 27.4093 59.3396 26.5761 60.1513 26.0056C60.9629 25.4352 62.2442 25.1402 63.9953 25.1209L65.2319 25.1016V24.5021C65.2319 24.0444 65.0993 23.6915 64.8341 23.4433C64.5688 23.1951 64.1582 23.0743 63.6022 23.0807C63.1932 23.0872 62.805 23.1838 62.4375 23.3708C62.0701 23.5577 61.8192 23.8833 61.685 24.3474H59.3556C59.394 23.6254 59.6017 23.0308 59.9787 22.5634C60.3558 22.0961 60.8686 21.748 61.5173 21.5191C62.1659 21.2903 62.9025 21.1759 63.7269 21.1759C64.743 21.1759 65.5578 21.3032 66.1713 21.5578C66.7848 21.8124 67.229 22.1766 67.5038 22.6504C67.7786 23.1242 67.916 23.6866 67.916 24.3377V31.3672H65.577L65.3469 29.6461C65.0082 30.368 64.5848 30.8676 64.0768 31.1448ZM63.2185 29.7058C62.7647 29.7058 62.3781 29.5753 62.0585 29.3142C61.739 29.0531 61.5792 28.6905 61.5792 28.2264C61.5792 27.8203 61.7023 27.498 61.9483 27.2595C62.1943 27.021 62.5187 26.8485 62.9213 26.7422C63.3239 26.6358 63.7585 26.5794 64.225 26.573L65.2315 26.5536V28.033C65.2315 28.2457 65.174 28.452 65.059 28.6519C64.944 28.8517 64.7922 29.0306 64.6036 29.1885C64.4151 29.3464 64.201 29.4721 63.9614 29.5656C63.7217 29.6591 63.4741 29.7058 63.2185 29.7058ZM74.1471 31.4699C73.949 31.5183 73.7541 31.5424 73.5624 31.5424C72.8338 31.5424 72.2555 31.4554 71.8273 31.2814C71.3991 31.1073 71.0828 30.8769 70.8783 30.59C70.6738 30.3032 70.5428 29.9841 70.4852 29.6328C70.4277 29.2815 70.399 28.9253 70.399 28.5643V17H73.1406V28.2162C73.1406 28.5837 73.2189 28.8818 73.3754 29.1106C73.532 29.3395 73.8276 29.4797 74.2622 29.5313L74.7319 29.5603V31.3007C74.5401 31.3652 74.3452 31.4216 74.1471 31.4699ZM79.7929 31.5424C79.9847 31.5424 80.1796 31.5183 80.3777 31.4699C80.5758 31.4216 80.7707 31.3652 80.9625 31.3007V29.5603L80.4927 29.5313C80.0582 29.4797 79.7626 29.3395 79.606 29.1106C79.4494 28.8818 79.3712 28.5837 79.3712 28.2162V17H76.6295V28.5643C76.6295 28.9253 76.6583 29.2815 76.7158 29.6328C76.7733 29.9841 76.9043 30.3032 77.1088 30.59C77.3133 30.8769 77.6297 31.1073 78.0579 31.2814C78.486 31.4554 79.0644 31.5424 79.7929 31.5424ZM89.3312 31.1641C88.6921 31.4284 88.0275 31.5606 87.3373 31.5606C86.3595 31.5606 85.4984 31.3527 84.7538 30.9369C84.0093 30.5211 83.4294 29.9329 83.014 29.1723C82.5986 28.4116 82.3909 27.5156 82.3909 26.4843C82.3909 25.4851 82.5794 24.5843 82.9565 23.7817C83.3335 22.9792 83.8815 22.3442 84.6005 21.8769C85.3194 21.4096 86.1838 21.1759 87.1935 21.1759C88.2032 21.1759 89.0516 21.3902 89.7386 21.8189C90.4256 22.2475 90.9433 22.8438 91.2916 23.6077C91.6399 24.3715 91.814 25.2531 91.814 26.2522V27.0161H85.1613C85.1549 27.5253 85.2347 27.9685 85.4009 28.3456C85.5671 28.7227 85.8083 29.0128 86.1247 29.2158C86.441 29.4189 86.8228 29.5204 87.2702 29.5204C87.7495 29.5204 88.1697 29.4172 88.5308 29.211C88.8918 29.0047 89.1427 28.6663 89.2833 28.1957H91.8044C91.6958 28.9048 91.4162 29.5107 90.9656 30.0135C90.5151 30.5163 89.9703 30.8999 89.3312 31.1641ZM89.1967 25.3353H85.1514C85.1514 24.9678 85.2312 24.6165 85.391 24.2813C85.5508 23.9461 85.7824 23.6738 86.086 23.4643C86.3896 23.2548 86.7586 23.15 87.1932 23.15C87.6405 23.15 88.0128 23.2467 88.31 23.4401C88.6071 23.6335 88.8292 23.8978 88.9762 24.233C89.1232 24.5682 89.1967 24.9356 89.1967 25.3353ZM96.5593 24.9672V31.3682H93.7601V21.3703H96.5113V22.782C96.6647 22.5371 96.8644 22.3002 97.1105 22.0713C97.3565 21.8425 97.668 21.6539 98.0451 21.5057C98.4221 21.3574 98.8695 21.2833 99.3872 21.2833C99.9943 21.2833 100.561 21.4025 101.089 21.641C101.616 21.8795 102.042 22.255 102.368 22.7675C102.694 23.28 102.857 23.9488 102.857 24.7739V31.3682H100.058V25.1219C100.058 24.5805 99.8984 24.1744 99.5789 23.9036C99.2593 23.6329 98.8695 23.4975 98.4094 23.4975C98.1026 23.4975 97.807 23.5523 97.5227 23.6619C97.2383 23.7715 97.0066 23.9359 96.8277 24.155C96.6487 24.3742 96.5593 24.6449 96.5593 24.9672ZM109.721 34.6764C111.491 34.6764 112.816 34.3718 113.694 33.7626C114.573 33.1535 115.012 32.3815 115.012 31.4469C115.012 30.6604 114.714 30.0078 114.116 29.4889C113.519 28.9699 112.613 28.6686 111.398 28.5848C110.957 28.5526 110.555 28.5268 110.191 28.5074C109.826 28.4881 109.542 28.472 109.337 28.4591C108.756 28.4204 108.321 28.3769 108.034 28.3286C107.746 28.2802 107.602 28.1787 107.602 28.024C107.602 27.9208 107.673 27.8306 107.813 27.7532C107.954 27.6759 108.213 27.6275 108.59 27.6082C108.717 27.6211 108.882 27.6308 109.083 27.6372C109.285 27.6437 109.446 27.6469 109.567 27.6469C110.552 27.6469 111.378 27.4922 112.045 27.1828C112.713 26.8733 113.215 26.4672 113.55 25.9644C113.886 25.4616 114.054 24.9202 114.054 24.34C114.054 24.2111 114.035 24.0467 113.996 23.8469C113.958 23.6471 113.904 23.4601 113.833 23.2861L115.549 23.0057L115.559 20.8204C115.348 20.9107 115.108 21.0122 114.84 21.125C114.571 21.2378 114.297 21.3506 114.015 21.4634C113.734 21.5762 113.472 21.6794 113.229 21.7728C112.986 21.8663 112.792 21.9421 112.645 22.0001C112.274 21.768 111.871 21.5795 111.437 21.4344C111.002 21.2894 110.443 21.2169 109.759 21.2169C108.864 21.2169 108.064 21.3393 107.358 21.5843C106.652 21.8293 106.094 22.187 105.685 22.6576C105.276 23.1281 105.072 23.6922 105.072 24.3497C105.072 24.904 105.241 25.4455 105.58 25.9741C105.918 26.5027 106.414 26.9217 107.065 27.2311C106.382 27.3471 105.872 27.5566 105.536 27.8596C105.201 28.1626 105.033 28.4913 105.033 28.8459C105.033 29.1617 105.115 29.4179 105.278 29.6146C105.441 29.8112 105.618 29.9659 105.81 30.0787C106.001 30.1915 106.148 30.2769 106.251 30.3349C106.206 30.3607 106.083 30.4106 105.882 30.4848C105.68 30.5589 105.46 30.6653 105.22 30.8039C104.98 30.9425 104.771 31.1278 104.592 31.3598C104.413 31.5919 104.324 31.8788 104.324 32.2204C104.324 32.9553 104.782 33.5483 105.699 33.9995C106.617 34.4508 107.957 34.6764 109.721 34.6764ZM108.345 25.6252C108.662 25.9217 109.094 26.07 109.644 26.07C110.175 26.07 110.601 25.9233 110.924 25.63C111.247 25.3367 111.408 24.9387 111.408 24.4359C111.408 23.9137 111.247 23.4947 110.924 23.1789C110.601 22.863 110.175 22.7051 109.644 22.7051C109.12 22.7051 108.693 22.863 108.364 23.1789C108.035 23.4947 107.871 23.9137 107.871 24.4359C107.871 24.9322 108.029 25.3286 108.345 25.6252ZM110.171 33.0992C109.11 33.0992 108.327 33.0025 107.822 32.8091C107.318 32.6157 107.065 32.3095 107.065 31.8905C107.065 31.6843 107.127 31.4909 107.252 31.3104C107.377 31.1299 107.552 30.9881 107.779 30.8849C108.006 30.7818 108.267 30.7367 108.561 30.7496L110.832 30.9043C111.325 30.9365 111.698 31.0477 111.954 31.2379C112.21 31.428 112.337 31.6746 112.337 31.9776C112.337 32.3385 112.171 32.6157 111.839 32.8091C111.507 33.0025 110.951 33.0992 110.171 33.0992ZM123.64 31.1641C123.001 31.4284 122.336 31.5606 121.646 31.5606C120.668 31.5606 119.807 31.3527 119.062 30.9369C118.318 30.5211 117.738 29.9329 117.322 29.1723C116.907 28.4116 116.699 27.5156 116.699 26.4843C116.699 25.4851 116.888 24.5843 117.265 23.7817C117.642 22.9792 118.19 22.3442 118.909 21.8769C119.628 21.4096 120.492 21.1759 121.502 21.1759C122.512 21.1759 123.36 21.3902 124.047 21.8189C124.734 22.2475 125.252 22.8438 125.6 23.6077C125.948 24.3715 126.122 25.2531 126.122 26.2522V27.0161H119.47C119.463 27.5253 119.543 27.9685 119.709 28.3456C119.876 28.7227 120.117 29.0128 120.433 29.2158C120.749 29.4189 121.131 29.5204 121.579 29.5204C122.058 29.5204 122.478 29.4172 122.839 29.211C123.2 29.0047 123.451 28.6663 123.592 28.1957H126.113C126.004 28.9048 125.725 29.5107 125.274 30.0135C124.824 30.5163 124.279 30.8999 123.64 31.1641ZM123.505 25.3353H119.46C119.46 24.9678 119.54 24.6165 119.699 24.2813C119.859 23.9461 120.091 23.6738 120.394 23.4643C120.698 23.2548 121.067 23.15 121.502 23.15C121.949 23.15 122.321 23.2467 122.618 23.4401C122.916 23.6335 123.138 23.8978 123.285 24.233C123.432 24.5682 123.505 24.9356 123.505 25.3353ZM130.887 28.2925V31.3673H127.819V28.2925H130.887Z" fill="black"/>
<path fill-rule="evenodd" clip-rule="evenodd" d="M138.938 31.1769C138.566 31.3267 138.123 31.4016 137.611 31.4016C136.764 31.4016 136.033 31.2089 135.417 30.8234C134.802 30.4379 134.33 29.8818 134 29.1549C133.67 28.428 133.505 27.5491 133.505 26.5183C133.505 25.4786 133.673 24.5909 134.01 23.8552C134.347 23.1195 134.827 22.5567 135.451 22.1668C136.075 21.777 136.813 21.582 137.664 21.582C138.15 21.582 138.607 21.6657 139.035 21.8331C139.463 22.0005 139.842 22.2285 140.172 22.5171C140.501 22.8056 140.766 23.1349 140.964 23.505C141.162 23.875 141.275 24.2605 141.302 24.6614H139.978C139.915 24.309 139.777 23.9808 139.563 23.6768C139.349 23.3728 139.078 23.1283 138.751 22.9433C138.423 22.7583 138.054 22.6658 137.644 22.6658C137.087 22.6658 136.598 22.8012 136.176 23.0722C135.755 23.3431 135.428 23.7605 135.193 24.3244C134.959 24.8883 134.842 25.6107 134.842 26.4918C134.842 27.1703 134.914 27.7518 135.056 28.2364C135.199 28.7209 135.399 29.1141 135.655 29.4159C135.911 29.7177 136.212 29.9401 136.558 30.0833C136.903 30.2265 137.276 30.2981 137.678 30.2981C138.083 30.2981 138.436 30.2276 138.737 30.0866C139.038 29.9456 139.289 29.7639 139.49 29.5414C139.69 29.319 139.845 29.0789 139.954 28.8212C140.063 28.5635 140.123 28.3157 140.131 28.0778L140.172 27.2319H137.818V26.3332L141.455 26.3398V31.2695H140.526V29.8157C140.357 30.0888 140.143 30.3465 139.884 30.5888C139.626 30.8311 139.31 31.0272 138.938 31.1769ZM149.733 30.8272C149.109 31.2104 148.367 31.4021 147.507 31.4021C146.646 31.4021 145.902 31.2104 145.273 30.8272C144.645 30.4439 144.16 29.8877 143.819 29.1586C143.478 28.4295 143.307 27.5474 143.307 26.5121C143.307 25.468 143.479 24.5792 143.822 23.8457C144.166 23.1122 144.653 22.5517 145.283 22.164C145.914 21.7763 146.655 21.5825 147.507 21.5825C148.362 21.5825 149.102 21.7752 149.726 22.1607C150.351 22.5462 150.832 23.1056 151.171 23.8391C151.51 24.5726 151.679 25.4636 151.679 26.5121C151.679 27.5474 151.511 28.4295 151.174 29.1586C150.838 29.8877 150.357 30.4439 149.733 30.8272ZM147.505 30.3381C146.917 30.3381 146.411 30.2037 145.988 29.935C145.564 29.6662 145.239 29.2499 145.011 28.686C144.784 28.1221 144.67 27.4019 144.67 26.5252C144.67 25.6397 144.784 24.9106 145.011 24.3379C145.239 23.7652 145.564 23.3401 145.988 23.0626C146.411 22.785 146.917 22.6463 147.505 22.6463C148.098 22.6463 148.604 22.7839 149.023 23.0593C149.442 23.3346 149.763 23.7586 149.986 24.3313C150.209 24.904 150.32 25.6353 150.32 26.5252C150.32 27.4019 150.21 28.1221 149.99 28.686C149.769 29.2499 149.449 29.6662 149.03 29.935C148.611 30.2037 148.103 30.3381 147.505 30.3381ZM160.999 21.7154L157.569 31.2707H156.078L152.708 21.7154H153.931L156.827 29.8764L159.782 21.7154H160.999Z" fill="#797979"/>
<rect y="44" width="606" height="237" fill="#979797"/>
<line y1="42.5" x2="606" y2="42.5" stroke="#979797" stroke-width="3"/>
<line x1="40" y1="354" x2="566" y2="354" stroke="#979797" stroke-width="2"/>
<line x1="40" y1="331" x2="171" y2="331" stroke="#979797" stroke-width="2"/>
<line x1="39" y1="298" x2="90" y2="298" stroke="#979797" stroke-width="2"/>
<line x1="116" y1="298" x2="167" y2="298" stroke="#979797" stroke-width="2"/>
<line x1="193" y1="298" x2="244" y2="298" stroke="#979797" stroke-width="2"/>
<line x1="270" y1="298" x2="321" y2="298" stroke="#979797" stroke-width="2"/>
<line x1="347" y1="298" x2="398" y2="298" stroke="#979797" stroke-width="2"/>
<line x1="515" y1="298" x2="566" y2="298" stroke="#979797" stroke-width="2"/>
<line x1="161" y1="400" x2="445" y2="400" stroke="#979797" stroke-width="2"/>
<line x1="161" y1="422" x2="445" y2="422" stroke="#979797" stroke-width="2"/>
<rect x="34" y="58" width="532" height="202" rx="5" fill="white"/>
<path d="M481.866 91H384.468C373.778 91 365.164 99.6079 365.164 110.298V207.696C365.164 218.387 373.778 227 384.468 227H481.866C492.556 227 501.17 218.387 501.17 207.696V110.298C501.17 99.6078 492.556 91 481.866 91ZM384.468 95.1537H481.866C490.179 95.1537 497.011 101.985 497.011 110.298V194.334L465.831 163.159C460.486 157.814 451.577 157.814 446.232 163.159L439.4 169.991L418.02 148.611C412.674 143.266 403.766 143.266 398.421 148.611L369.323 176.817V110.298C369.323 101.985 376.155 95.1537 384.468 95.1537ZM481.866 222.847H384.468C376.155 222.847 369.323 216.015 369.323 207.702V183.053L401.099 151.278C404.957 147.419 410.898 147.419 414.757 151.278L436.137 172.658L409.117 199.679L412.084 202.646L449.205 166.127C453.064 162.269 459.005 162.269 462.863 166.127L497.011 200.275V207.696C497.011 216.015 490.184 222.847 481.866 222.847Z" fill="#979797"/>
<path d="M447.718 121.584C447.718 129.306 453.954 135.837 461.972 135.837C469.695 135.837 476.226 129.601 476.226 121.584C476.226 113.861 469.99 107.33 461.972 107.33C453.954 107.33 447.718 113.861 447.718 121.584ZM471.772 121.584C471.772 126.929 467.317 131.383 461.972 131.383C456.627 131.383 452.173 126.929 452.173 121.584C452.173 116.239 456.627 111.784 461.972 111.784C467.317 111.784 471.772 116.239 471.772 121.584Z" fill="#979797"/>
<path d="M68.784 127.272C69.6 127.272 70.3227 127.443 70.952 127.784C71.5813 128.12 72.088 128.571 72.472 129.136C72.856 129.701 73.0827 130.323 73.152 131H71.576C71.4907 130.547 71.328 130.136 71.088 129.768C70.848 129.4 70.5333 129.107 70.144 128.888C69.7547 128.669 69.288 128.56 68.744 128.56C68.0453 128.56 67.4533 128.725 66.968 129.056C66.488 129.381 66.1227 129.885 65.872 130.568C65.6267 131.251 65.504 132.125 65.504 133.192C65.504 134.803 65.7787 135.987 66.328 136.744C66.8827 137.496 67.688 137.872 68.744 137.872C69.288 137.872 69.7547 137.757 70.144 137.528C70.5333 137.299 70.848 136.992 71.088 136.608C71.328 136.224 71.4907 135.808 71.576 135.36H73.152C73.0933 135.851 72.96 136.325 72.752 136.784C72.5493 137.237 72.2693 137.643 71.912 138C71.5547 138.357 71.1147 138.64 70.592 138.848C70.0747 139.056 69.472 139.16 68.784 139.16C67.744 139.16 66.856 138.923 66.12 138.448C65.3893 137.973 64.8293 137.291 64.44 136.4C64.056 135.509 63.864 134.435 63.864 133.176C63.864 131.923 64.056 130.856 64.44 129.976C64.824 129.096 65.3813 128.427 66.112 127.968C66.848 127.504 67.7387 127.272 68.784 127.272ZM75.2396 139V127.112H76.6796V131.944C76.8183 131.715 77.005 131.501 77.2396 131.304C77.4743 131.101 77.7596 130.939 78.0956 130.816C78.4316 130.688 78.821 130.624 79.2636 130.624C79.8023 130.624 80.2903 130.725 80.7276 130.928C81.165 131.125 81.5116 131.408 81.7676 131.776C82.0236 132.144 82.1516 132.581 82.1516 133.088V139H80.6716V133.384C80.6716 132.888 80.501 132.507 80.1596 132.24C79.8236 131.968 79.3836 131.832 78.8396 131.832C78.4716 131.832 78.125 131.893 77.7996 132.016C77.4743 132.133 77.2103 132.315 77.0076 132.56C76.8103 132.8 76.7116 133.107 76.7116 133.48V139H75.2396ZM86.7151 139.16C86.1818 139.16 85.7098 139.067 85.2991 138.88C84.8885 138.688 84.5658 138.413 84.3311 138.056C84.1018 137.699 83.9871 137.267 83.9871 136.76C83.9871 135.843 84.3071 135.16 84.9471 134.712C85.5871 134.264 86.6138 134.024 88.0271 133.992L89.5071 133.952V133.304C89.5071 132.797 89.3551 132.397 89.0511 132.104C88.7471 131.805 88.2751 131.656 87.6351 131.656C87.1605 131.661 86.7418 131.773 86.3791 131.992C86.0218 132.211 85.7898 132.568 85.6831 133.064H84.3791C84.4111 132.525 84.5631 132.072 84.8351 131.704C85.1071 131.331 85.4858 131.048 85.9711 130.856C86.4618 130.664 87.0405 130.568 87.7071 130.568C88.4271 130.568 89.0245 130.669 89.4991 130.872C89.9791 131.075 90.3365 131.373 90.5711 131.768C90.8111 132.163 90.9311 132.648 90.9311 133.224V139H89.6671L89.5631 137.448C89.2431 138.093 88.8351 138.541 88.3391 138.792C87.8485 139.037 87.3071 139.16 86.7151 139.16ZM87.1631 138.096C87.4405 138.096 87.7151 138.045 87.9871 137.944C88.2645 137.843 88.5178 137.707 88.7471 137.536C88.9765 137.36 89.1578 137.165 89.2911 136.952C89.4298 136.733 89.5018 136.509 89.5071 136.28V134.864L88.2751 134.888C87.6458 134.899 87.1178 134.963 86.6911 135.08C86.2698 135.197 85.9525 135.381 85.7391 135.632C85.5311 135.883 85.4271 136.211 85.4271 136.616C85.4271 137.08 85.5871 137.443 85.9071 137.704C86.2325 137.965 86.6511 138.096 87.1631 138.096ZM95.5464 139.104C95.0984 139.104 94.7357 139.043 94.4584 138.92C94.1864 138.797 93.9757 138.632 93.8264 138.424C93.6824 138.216 93.5837 137.979 93.5304 137.712C93.4824 137.44 93.4584 137.16 93.4584 136.872V127.112H94.9144V136.728C94.9144 137.144 94.9944 137.456 95.1544 137.664C95.3197 137.872 95.549 137.987 95.8424 138.008L96.2904 138.016V138.976C96.1677 139.013 96.0397 139.043 95.9064 139.064C95.773 139.091 95.653 139.104 95.5464 139.104ZM100.078 139.104C99.6296 139.104 99.267 139.043 98.9896 138.92C98.7176 138.797 98.507 138.632 98.3576 138.424C98.2136 138.216 98.115 137.979 98.0616 137.712C98.0136 137.44 97.9896 137.16 97.9896 136.872V127.112H99.4456V136.728C99.4456 137.144 99.5256 137.456 99.6856 137.664C99.851 137.872 100.08 137.987 100.374 138.008L100.822 138.016V138.976C100.699 139.013 100.571 139.043 100.438 139.064C100.304 139.091 100.184 139.104 100.078 139.104ZM103.671 135.208C103.671 135.731 103.756 136.205 103.927 136.632C104.103 137.053 104.367 137.389 104.719 137.64C105.076 137.891 105.521 138.016 106.055 138.016C106.583 138.016 107.036 137.893 107.415 137.648C107.799 137.403 108.044 137.048 108.151 136.584H109.551C109.449 137.144 109.225 137.616 108.879 138C108.532 138.384 108.113 138.675 107.623 138.872C107.132 139.064 106.62 139.16 106.087 139.16C105.313 139.16 104.633 138.992 104.047 138.656C103.46 138.32 103.001 137.837 102.671 137.208C102.34 136.579 102.175 135.824 102.175 134.944C102.175 134.075 102.324 133.312 102.623 132.656C102.921 132 103.353 131.488 103.919 131.12C104.489 130.752 105.175 130.568 105.975 130.568C106.753 130.568 107.412 130.736 107.951 131.072C108.489 131.408 108.897 131.883 109.175 132.496C109.457 133.104 109.599 133.827 109.599 134.664V135.208H103.671ZM103.679 134.208H108.175C108.175 133.733 108.095 133.307 107.935 132.928C107.775 132.544 107.529 132.243 107.199 132.024C106.873 131.8 106.463 131.688 105.967 131.688C105.449 131.688 105.02 131.813 104.679 132.064C104.343 132.309 104.089 132.627 103.919 133.016C103.753 133.4 103.673 133.797 103.679 134.208ZM111.63 139V130.728H113.062V131.928C113.196 131.699 113.38 131.483 113.614 131.28C113.854 131.077 114.142 130.915 114.478 130.792C114.82 130.669 115.212 130.608 115.654 130.608C116.177 130.608 116.657 130.712 117.094 130.92C117.537 131.128 117.889 131.453 118.15 131.896C118.417 132.333 118.55 132.899 118.55 133.592V139H117.07V133.736C117.07 133.091 116.9 132.613 116.558 132.304C116.222 131.989 115.785 131.832 115.246 131.832C114.873 131.832 114.524 131.893 114.198 132.016C113.873 132.133 113.609 132.315 113.406 132.56C113.204 132.8 113.102 133.104 113.102 133.472V139H111.63ZM124.353 141.736C123.051 141.736 122.038 141.547 121.313 141.168C120.593 140.795 120.233 140.259 120.233 139.56C120.233 139.261 120.302 139.008 120.441 138.8C120.579 138.587 120.745 138.411 120.937 138.272C121.129 138.133 121.307 138.024 121.473 137.944C121.638 137.859 121.745 137.797 121.793 137.76C121.702 137.707 121.587 137.64 121.449 137.56C121.315 137.48 121.198 137.373 121.097 137.24C120.995 137.107 120.945 136.933 120.945 136.72C120.945 136.459 121.067 136.219 121.313 136C121.558 135.781 121.921 135.619 122.401 135.512C121.915 135.267 121.537 134.941 121.265 134.536C120.993 134.131 120.857 133.691 120.857 133.216C120.857 132.683 121.001 132.219 121.289 131.824C121.582 131.429 121.998 131.128 122.537 130.92C123.075 130.707 123.715 130.6 124.457 130.6C124.995 130.6 125.449 130.664 125.817 130.792C126.185 130.915 126.526 131.091 126.841 131.32C126.926 131.283 127.059 131.227 127.241 131.152C127.427 131.072 127.633 130.987 127.857 130.896C128.081 130.805 128.289 130.72 128.481 130.64C128.678 130.555 128.835 130.491 128.953 130.448L128.945 131.816L127.497 132.088C127.577 132.259 127.641 132.445 127.689 132.648C127.742 132.851 127.769 133.04 127.769 133.216C127.769 133.701 127.641 134.141 127.385 134.536C127.134 134.931 126.753 135.245 126.241 135.48C125.729 135.715 125.089 135.832 124.321 135.832C124.257 135.832 124.174 135.832 124.073 135.832C123.977 135.827 123.894 135.821 123.825 135.816C123.259 135.832 122.87 135.896 122.657 136.008C122.443 136.115 122.337 136.235 122.337 136.368C122.337 136.523 122.457 136.629 122.697 136.688C122.937 136.747 123.345 136.797 123.921 136.84C124.129 136.851 124.385 136.864 124.689 136.88C124.998 136.896 125.339 136.917 125.713 136.944C126.582 136.997 127.251 137.219 127.721 137.608C128.19 137.997 128.425 138.523 128.425 139.184C128.425 139.936 128.089 140.549 127.417 141.024C126.745 141.499 125.723 141.736 124.353 141.736ZM124.617 140.784C125.379 140.784 125.963 140.669 126.369 140.44C126.774 140.211 126.977 139.864 126.977 139.4C126.977 139.069 126.851 138.8 126.601 138.592C126.355 138.379 125.979 138.256 125.473 138.224L123.153 138.072C122.945 138.061 122.729 138.115 122.505 138.232C122.281 138.344 122.089 138.501 121.929 138.704C121.774 138.907 121.697 139.136 121.697 139.392C121.697 139.829 121.934 140.171 122.409 140.416C122.889 140.661 123.625 140.784 124.617 140.784ZM124.361 134.88C124.958 134.88 125.438 134.741 125.801 134.464C126.169 134.187 126.353 133.776 126.353 133.232C126.353 132.672 126.169 132.245 125.801 131.952C125.438 131.659 124.958 131.512 124.361 131.512C123.758 131.512 123.27 131.661 122.897 131.96C122.529 132.253 122.345 132.677 122.345 133.232C122.345 133.755 122.521 134.16 122.873 134.448C123.225 134.736 123.721 134.88 124.361 134.88ZM131.593 135.208C131.593 135.731 131.678 136.205 131.849 136.632C132.025 137.053 132.289 137.389 132.641 137.64C132.998 137.891 133.443 138.016 133.977 138.016C134.505 138.016 134.958 137.893 135.337 137.648C135.721 137.403 135.966 137.048 136.073 136.584H137.473C137.371 137.144 137.147 137.616 136.801 138C136.454 138.384 136.035 138.675 135.545 138.872C135.054 139.064 134.542 139.16 134.009 139.16C133.235 139.16 132.555 138.992 131.969 138.656C131.382 138.32 130.923 137.837 130.593 137.208C130.262 136.579 130.097 135.824 130.097 134.944C130.097 134.075 130.246 133.312 130.545 132.656C130.843 132 131.275 131.488 131.841 131.12C132.411 130.752 133.097 130.568 133.897 130.568C134.675 130.568 135.334 130.736 135.873 131.072C136.411 131.408 136.819 131.883 137.097 132.496C137.379 133.104 137.521 133.827 137.521 134.664V135.208H131.593ZM131.601 134.208H136.097C136.097 133.733 136.017 133.307 135.857 132.928C135.697 132.544 135.451 132.243 135.121 132.024C134.795 131.8 134.385 131.688 133.889 131.688C133.371 131.688 132.942 131.813 132.601 132.064C132.265 132.309 132.011 132.627 131.841 133.016C131.675 133.4 131.595 133.797 131.601 134.208ZM145.911 139.16C144.839 139.16 143.988 138.792 143.359 138.056C142.73 137.32 142.415 136.245 142.415 134.832C142.415 133.973 142.54 133.224 142.791 132.584C143.047 131.944 143.426 131.448 143.927 131.096C144.428 130.744 145.052 130.568 145.799 130.568C146.194 130.568 146.543 130.619 146.847 130.72C147.156 130.821 147.423 130.949 147.647 131.104C147.871 131.259 148.052 131.419 148.191 131.584C148.335 131.749 148.442 131.901 148.511 132.04V127.112H149.999V139H148.871L148.711 137.304C148.658 137.464 148.572 137.651 148.455 137.864C148.338 138.072 148.172 138.277 147.959 138.48C147.746 138.677 147.471 138.84 147.135 138.968C146.804 139.096 146.396 139.16 145.911 139.16ZM146.175 138.024C147.012 138.024 147.61 137.771 147.967 137.264C148.33 136.752 148.511 135.917 148.511 134.76C148.506 134.115 148.423 133.565 148.263 133.112C148.108 132.659 147.863 132.315 147.527 132.08C147.196 131.84 146.756 131.72 146.207 131.72C145.524 131.72 144.97 131.963 144.543 132.448C144.116 132.933 143.903 133.704 143.903 134.76C143.903 135.795 144.095 136.597 144.479 137.168C144.868 137.739 145.434 138.024 146.175 138.024ZM153.499 135.208C153.499 135.731 153.584 136.205 153.755 136.632C153.931 137.053 154.195 137.389 154.547 137.64C154.904 137.891 155.349 138.016 155.883 138.016C156.411 138.016 156.864 137.893 157.243 137.648C157.627 137.403 157.872 137.048 157.979 136.584H159.379C159.277 137.144 159.053 137.616 158.707 138C158.36 138.384 157.941 138.675 157.451 138.872C156.96 139.064 156.448 139.16 155.915 139.16C155.141 139.16 154.461 138.992 153.875 138.656C153.288 138.32 152.829 137.837 152.499 137.208C152.168 136.579 152.003 135.824 152.003 134.944C152.003 134.075 152.152 133.312 152.451 132.656C152.749 132 153.181 131.488 153.747 131.12C154.317 130.752 155.003 130.568 155.803 130.568C156.581 130.568 157.24 130.736 157.779 131.072C158.317 131.408 158.725 131.883 159.003 132.496C159.285 133.104 159.427 133.827 159.427 134.664V135.208H153.499ZM153.507 134.208H158.003C158.003 133.733 157.923 133.307 157.763 132.928C157.603 132.544 157.357 132.243 157.027 132.024C156.701 131.8 156.291 131.688 155.795 131.688C155.277 131.688 154.848 131.813 154.507 132.064C154.171 132.309 153.917 132.627 153.747 133.016C153.581 133.4 153.501 133.797 153.507 134.208ZM165.395 131.808H163.531V136.952C163.531 137.245 163.561 137.461 163.619 137.6C163.683 137.733 163.787 137.819 163.931 137.856C164.081 137.893 164.283 137.912 164.539 137.912H165.443V138.904C165.342 138.941 165.187 138.973 164.979 139C164.777 139.027 164.523 139.04 164.219 139.04C163.649 139.04 163.206 138.963 162.891 138.808C162.577 138.653 162.355 138.424 162.227 138.12C162.105 137.816 162.043 137.443 162.043 137V131.808H160.699V130.728H162.083L162.443 128.32H163.531V130.72H165.395V131.808ZM169.746 139.16C169.213 139.16 168.741 139.067 168.33 138.88C167.92 138.688 167.597 138.413 167.362 138.056C167.133 137.699 167.018 137.267 167.018 136.76C167.018 135.843 167.338 135.16 167.978 134.712C168.618 134.264 169.645 134.024 171.058 133.992L172.538 133.952V133.304C172.538 132.797 172.386 132.397 172.082 132.104C171.778 131.805 171.306 131.656 170.666 131.656C170.192 131.661 169.773 131.773 169.41 131.992C169.053 132.211 168.821 132.568 168.714 133.064H167.41C167.442 132.525 167.594 132.072 167.866 131.704C168.138 131.331 168.517 131.048 169.002 130.856C169.493 130.664 170.072 130.568 170.738 130.568C171.458 130.568 172.056 130.669 172.53 130.872C173.01 131.075 173.368 131.373 173.602 131.768C173.842 132.163 173.962 132.648 173.962 133.224V139H172.698L172.594 137.448C172.274 138.093 171.866 138.541 171.37 138.792C170.88 139.037 170.338 139.16 169.746 139.16ZM170.194 138.096C170.472 138.096 170.746 138.045 171.018 137.944C171.296 137.843 171.549 137.707 171.778 137.536C172.008 137.36 172.189 137.165 172.322 136.952C172.461 136.733 172.533 136.509 172.538 136.28V134.864L171.306 134.888C170.677 134.899 170.149 134.963 169.722 135.08C169.301 135.197 168.984 135.381 168.77 135.632C168.562 135.883 168.458 136.211 168.458 136.616C168.458 137.08 168.618 137.443 168.938 137.704C169.264 137.965 169.682 138.096 170.194 138.096ZM178.09 130.728V139H176.658V130.728H178.09ZM178.122 127.44V128.976H176.61V127.44H178.122ZM182.89 139.104C182.442 139.104 182.079 139.043 181.802 138.92C181.53 138.797 181.319 138.632 181.17 138.424C181.026 138.216 180.927 137.979 180.874 137.712C180.826 137.44 180.802 137.16 180.802 136.872V127.112H182.258V136.728C182.258 137.144 182.338 137.456 182.498 137.664C182.663 137.872 182.893 137.987 183.186 138.008L183.634 138.016V138.976C183.511 139.013 183.383 139.043 183.25 139.064C183.117 139.091 182.997 139.104 182.89 139.104ZM188.269 139.16C187.693 139.16 187.157 139.072 186.661 138.896C186.171 138.715 185.763 138.435 185.437 138.056C185.112 137.672 184.907 137.184 184.821 136.592H186.165C186.24 136.917 186.373 137.189 186.565 137.408C186.763 137.621 187.008 137.784 187.301 137.896C187.595 138.003 187.915 138.056 188.261 138.056C188.816 138.056 189.264 137.952 189.605 137.744C189.947 137.536 190.117 137.216 190.117 136.784C190.117 136.48 190.027 136.237 189.845 136.056C189.669 135.869 189.395 135.733 189.021 135.648L187.309 135.224C186.643 135.064 186.109 134.813 185.709 134.472C185.309 134.131 185.109 133.653 185.109 133.04C185.104 132.555 185.219 132.128 185.453 131.76C185.688 131.392 186.04 131.101 186.509 130.888C186.979 130.675 187.563 130.568 188.261 130.568C189.157 130.568 189.88 130.771 190.429 131.176C190.984 131.576 191.272 132.165 191.293 132.944H189.989C189.936 132.549 189.757 132.237 189.453 132.008C189.155 131.773 188.752 131.656 188.245 131.656C187.717 131.656 187.288 131.763 186.957 131.976C186.627 132.184 186.461 132.509 186.461 132.952C186.461 133.245 186.579 133.477 186.813 133.648C187.048 133.813 187.395 133.952 187.853 134.064L189.509 134.48C189.893 134.581 190.208 134.715 190.453 134.88C190.704 135.045 190.901 135.229 191.045 135.432C191.195 135.635 191.299 135.848 191.357 136.072C191.421 136.291 191.453 136.501 191.453 136.704C191.453 137.211 191.325 137.648 191.069 138.016C190.819 138.379 190.456 138.661 189.981 138.864C189.512 139.061 188.941 139.16 188.269 139.16Z" fill="black"/>
<rect x="162.5" y="443.5" width="209" height="20" fill="white" stroke="#979797" stroke-width="3"/>
<rect x="162.5" y="507.5" width="281" height="82" fill="white" stroke="#979797" stroke-width="3"/>
<rect x="161" y="605" width="284" height="34" fill="#979797"/>
<line x1="65" y1="162" x2="270" y2="162" stroke="#979797" stroke-width="2"/>
<line x1="65" y1="178" x2="270" y2="178" stroke="#979797" stroke-width="2"/>
<line x1="65" y1="194" x2="270" y2="194" stroke="#979797" stroke-width="2"/>
<line x1="65" y1="210" x2="270" y2="210" stroke="#979797" stroke-width="2"/>
<line x1="65" y1="226" x2="270" y2="226" stroke="#979797" stroke-width="2"/>
<path d="M99.7972 70.6777H68.3644C66.1791 70.681 64.4088 72.4513 64.4056 74.6366V105.362C64.4088 107.547 66.1791 109.318 68.3644 109.321H99.7972C101.982 109.318 103.753 107.547 103.754 105.362V74.6366C103.753 72.4513 101.982 70.681 99.7972 70.6777ZM68.3644 72.4283H99.7972C101.016 72.4299 102.004 73.4176 102.004 74.6366V92.2291L93.8861 84.3671C93.5481 84.0406 93.0116 84.039 92.672 84.3655L81.1548 95.4086L77.3305 91.4629C77.0073 91.1315 76.4839 91.1068 76.1328 91.4071L66.1561 99.9713V74.6369C66.1578 73.4179 67.1454 72.4303 68.3644 72.4286V72.4283ZM66.1561 105.362V102.278L76.6477 93.2726L80.4983 97.2461L80.4999 97.2494L80.5032 97.2511L90.503 107.57H68.3644C67.1454 107.569 66.1577 106.581 66.1561 105.362L66.1561 105.362ZM99.7973 107.57H92.9412L82.3723 96.6652L93.2759 86.2109L102.006 94.6651V105.362H102.004C102.004 106.581 101.016 107.569 99.7974 107.57L99.7973 107.57Z" fill="#979797"/>
<path d="M73.9743 84.0524C75.6362 84.0524 77.1341 83.0517 77.7707 81.516C78.4056 79.9804 78.0545 78.2134 76.8798 77.0371C75.7035 75.8624 73.9365 75.5113 72.4009 76.1463C70.8653 76.7828 69.8645 78.2807 69.8645 79.9427C69.8662 82.2117 71.7053 84.0492 73.9743 84.0525L73.9743 84.0524ZM73.9743 77.5836C74.9275 77.5836 75.7888 78.1594 76.153 79.0405C76.5189 79.9215 76.3171 80.937 75.6411 81.6113C74.9668 82.2857 73.9529 82.4874 73.0703 82.1232C72.1892 81.7574 71.615 80.8977 71.615 79.9429C71.615 78.6418 72.6716 77.5853 73.9743 77.5836V77.5836Z" fill="#979797"/>
</svg>
