<svg width="230" height="115" viewBox="0 0 230 115" fill="none" xmlns="http://www.w3.org/2000/svg">
<rect width="230" height="115" fill="white"/>
<path fill-rule="evenodd" clip-rule="evenodd" d="M43.7283 65.9486V56.2002C43.7283 55.698 43.8625 55.2771 44.131 54.9374C44.3995 54.5976 44.7485 54.3441 45.178 54.1767C45.6075 54.0093 46.0517 53.9256 46.5105 53.9256C47.2134 53.9256 47.8114 54.1102 48.3043 54.4795C48.7973 54.8487 49.0438 55.378 49.0438 56.0673V65.9486H53.3343V55.4322C53.3343 54.3982 53.0927 53.5219 52.6095 52.8031C52.1263 52.0842 51.4868 51.5353 50.6912 51.1562C49.8956 50.7771 49.0145 50.5875 48.0481 50.5875C47.2476 50.5875 46.5691 50.7057 46.0127 50.942C45.4562 51.1783 44.9925 51.4713 44.6215 51.8208C44.2506 52.1704 43.9431 52.5224 43.699 52.8769V44H39.4525V65.9486H43.7283ZM27.5914 66.244C29.0752 66.244 30.3394 66.0372 31.384 65.6236C32.4285 65.2101 33.2827 64.6439 33.9466 63.9251C34.6104 63.2062 35.1229 62.3865 35.4841 61.4658C35.8453 60.5451 36.0894 59.5777 36.2163 58.5635H31.7354C31.5988 59.3118 31.3498 59.9986 30.9886 60.6239C30.6274 61.2492 30.154 61.7514 29.5682 62.1305C28.9825 62.5096 28.2796 62.6991 27.4596 62.6991C25.9757 62.6991 24.8116 62.1059 23.9672 60.9193C23.1227 59.7328 22.7005 57.8102 22.7005 55.1515C22.7005 53.3889 22.8909 51.971 23.2716 50.8977C23.6523 49.8244 24.199 49.0465 24.9116 48.564C25.6243 48.0815 26.4736 47.8403 27.4596 47.8403C28.2796 47.8403 28.9825 48.0052 29.5682 48.3351C30.154 48.6649 30.6274 49.1179 30.9886 49.6939C31.3498 50.27 31.5988 50.9272 31.7354 51.6658H36.2163C36.0796 50.2675 35.6281 49.012 34.8618 47.8993C34.0954 46.7867 33.0899 45.9078 31.8453 45.2629C30.6006 44.6179 29.1826 44.2954 27.5914 44.2954C25.6096 44.2954 23.9013 44.7287 22.4662 45.5952C21.0312 46.4617 19.928 47.6999 19.1568 49.3099C18.3856 50.9199 18 52.8474 18 55.0925C18 57.3277 18.388 59.2823 19.1641 60.9562C19.9402 62.6302 21.0458 63.93 22.4809 64.8556C23.9159 65.7812 25.6194 66.244 27.5914 66.244ZM63.9434 65.6089C63.1673 66.0323 62.2521 66.244 61.1978 66.244C60.2313 66.244 59.3625 66.0618 58.5913 65.6975C57.8201 65.3332 57.2099 64.8039 56.7609 64.1097C56.3118 63.4155 56.0873 62.5711 56.0873 61.5766C56.0873 59.9026 56.7072 58.6299 57.947 57.7585C59.1868 56.887 61.1441 56.4365 63.8189 56.407L65.7079 56.3775V55.4617C65.7079 54.7626 65.5054 54.2235 65.1002 53.8444C64.6951 53.4653 64.0679 53.2806 63.2186 53.2905C62.5938 53.3003 62.0007 53.448 61.4394 53.7336C60.8781 54.0191 60.4949 54.5164 60.2899 55.2254H56.7316C56.7901 54.1225 57.1074 53.2142 57.6834 52.5003C58.2594 51.7864 59.0428 51.2547 60.0336 50.9051C61.0245 50.5555 62.1496 50.3807 63.4089 50.3807C64.9611 50.3807 66.2058 50.5752 67.143 50.9642C68.0801 51.3531 68.7586 51.9095 69.1784 52.6332C69.5982 53.3569 69.8081 54.2161 69.8081 55.2106V65.9486H66.2351L65.8836 63.3195C65.3662 64.4223 64.7195 65.1854 63.9434 65.6089ZM62.6328 63.4081C61.9397 63.4081 61.3491 63.2087 60.861 62.8099C60.3729 62.4111 60.1288 61.8572 60.1288 61.1482C60.1288 60.5279 60.3167 60.0356 60.6926 59.6712C61.0684 59.3069 61.5639 59.0435 62.1789 58.881C62.7939 58.7185 63.4577 58.6324 64.1704 58.6225L65.7079 58.593V60.8528C65.7079 61.1778 65.6201 61.4929 65.4443 61.7981C65.2686 62.1034 65.0368 62.3766 64.7488 62.6179C64.4608 62.8591 64.1338 63.0511 63.7677 63.1939C63.4016 63.3367 63.0233 63.4081 62.6328 63.4081ZM79.3262 66.1037C79.0236 66.1775 78.7258 66.2144 78.433 66.2144C77.3201 66.2144 76.4366 66.0815 75.7825 65.8156C75.1285 65.5498 74.6452 65.1978 74.3328 64.7596C74.0205 64.3214 73.8203 63.834 73.7325 63.2973C73.6446 62.7607 73.6007 62.2166 73.6007 61.6652V44H77.7887V61.1335C77.7887 61.6947 77.9082 62.1502 78.1474 62.4997C78.3866 62.8493 78.8381 63.0635 79.5019 63.1422L80.2195 63.1865V65.8452C79.9266 65.9437 79.6288 66.0298 79.3262 66.1037ZM87.9511 66.2144C88.244 66.2144 88.5417 66.1775 88.8444 66.1037C89.147 66.0298 89.4447 65.9437 89.7376 65.8452V63.1865L89.0201 63.1422C88.3563 63.0635 87.9048 62.8493 87.6656 62.4997C87.4264 62.1502 87.3068 61.6947 87.3068 61.1335V44H83.1188V61.6652C83.1188 62.2166 83.1628 62.7607 83.2506 63.2973C83.3385 63.834 83.5386 64.3214 83.851 64.7596C84.1634 65.1978 84.6466 65.5498 85.3007 65.8156C85.9548 66.0815 86.8382 66.2144 87.9511 66.2144ZM102.521 65.6384C101.545 66.0421 100.53 66.244 99.4754 66.244C97.9818 66.244 96.6663 65.9264 95.529 65.2913C94.3917 64.6562 93.5058 63.7577 92.8713 62.5957C92.2367 61.4338 91.9195 60.0651 91.9195 58.4896C91.9195 56.9633 92.2075 55.5873 92.7834 54.3613C93.3594 53.1354 94.1965 52.1655 95.2947 51.4516C96.393 50.7377 97.7133 50.3807 99.2558 50.3807C100.798 50.3807 102.094 50.7082 103.144 51.363C104.193 52.0178 104.984 52.9286 105.516 54.0955C106.048 55.2623 106.314 56.6089 106.314 58.1351V59.302H96.1514C96.1416 60.0799 96.2636 60.7568 96.5175 61.3329C96.7713 61.9089 97.1398 62.352 97.623 62.6622C98.1063 62.9724 98.6896 63.1275 99.3729 63.1275C100.105 63.1275 100.747 62.9699 101.299 62.6548C101.85 62.3397 102.233 61.8228 102.448 61.1039H106.299C106.133 62.1871 105.706 63.1127 105.018 63.8807C104.33 64.6488 103.497 65.2347 102.521 65.6384ZM102.316 56.7319H96.1367C96.1367 56.1707 96.2588 55.634 96.5028 55.122C96.7469 54.61 97.1008 54.1939 97.5645 53.8739C98.0282 53.5539 98.5919 53.3939 99.2558 53.3939C99.9391 53.3939 100.508 53.5416 100.962 53.837C101.416 54.1324 101.755 54.5361 101.979 55.0481C102.204 55.5602 102.316 56.1214 102.316 56.7319ZM113.562 56.1707V65.9486H109.286V50.6761H113.489V52.8326C113.723 52.4584 114.028 52.0966 114.404 51.747C114.78 51.3974 115.256 51.1094 115.832 50.8829C116.408 50.6565 117.091 50.5432 117.882 50.5432C118.809 50.5432 119.676 50.7254 120.481 51.0897C121.287 51.454 121.938 52.0276 122.436 52.8104C122.934 53.5933 123.183 54.6149 123.183 55.8753V65.9486H118.907V56.407C118.907 55.5799 118.663 54.9595 118.175 54.546C117.687 54.1324 117.091 53.9256 116.388 53.9256C115.92 53.9256 115.468 54.0093 115.034 54.1767C114.6 54.3441 114.246 54.5952 113.972 54.93C113.699 55.2648 113.562 55.6783 113.562 56.1707ZM133.668 71C136.372 71 138.395 70.5347 139.737 69.6042C141.08 68.6737 141.751 67.4945 141.751 66.0667C141.751 64.8654 141.294 63.8684 140.382 63.0758C139.469 62.2831 138.085 61.8228 136.23 61.6947C135.557 61.6455 134.942 61.6061 134.385 61.5766C133.829 61.547 133.394 61.5224 133.082 61.5027C132.193 61.4437 131.53 61.3772 131.09 61.3033C130.651 61.2295 130.431 61.0744 130.431 60.8381C130.431 60.6805 130.539 60.5427 130.754 60.4245C130.968 60.3063 131.364 60.2325 131.94 60.203C132.135 60.2226 132.386 60.2374 132.694 60.2473C133.001 60.2571 133.248 60.262 133.433 60.262C134.937 60.262 136.198 60.0257 137.219 59.5531C138.239 59.0804 139.005 58.4601 139.518 57.692C140.03 56.924 140.286 56.0968 140.286 55.2106C140.286 55.0137 140.257 54.7626 140.198 54.4573C140.14 54.1521 140.057 53.8665 139.95 53.6007L142.571 53.1723L142.585 49.8342C142.263 49.9721 141.897 50.1272 141.487 50.2995C141.077 50.4718 140.657 50.6441 140.228 50.8165C139.798 50.9888 139.398 51.1463 139.027 51.2891C138.656 51.4319 138.358 51.5476 138.134 51.6362C137.568 51.2817 136.953 50.9937 136.289 50.7722C135.625 50.5506 134.771 50.4398 133.726 50.4398C132.359 50.4398 131.137 50.6269 130.058 51.0011C128.979 51.3753 128.128 51.9218 127.503 52.6406C126.878 53.3594 126.566 54.221 126.566 55.2254C126.566 56.0722 126.824 56.8993 127.342 57.7068C127.859 58.5142 128.616 59.1543 129.611 59.6269C128.567 59.8042 127.788 60.1242 127.276 60.587C126.763 61.0498 126.507 61.552 126.507 62.0935C126.507 62.576 126.631 62.9675 126.88 63.2678C127.129 63.5681 127.4 63.8044 127.693 63.9768C127.986 64.1491 128.21 64.2795 128.367 64.3682C128.298 64.4075 128.11 64.4839 127.803 64.5971C127.495 64.7103 127.159 64.8728 126.793 65.0845C126.426 65.2962 126.107 65.5793 125.833 65.9338C125.56 66.2883 125.423 66.7265 125.423 67.2484C125.423 68.3709 126.124 69.2768 127.525 69.9661C128.926 70.6554 130.973 71 133.668 71ZM131.566 57.1751C132.049 57.628 132.711 57.8545 133.55 57.8545C134.361 57.8545 135.012 57.6305 135.505 57.1824C135.998 56.7344 136.245 56.1264 136.245 55.3583C136.245 54.5607 135.998 53.9207 135.505 53.4382C135.012 52.9557 134.361 52.7144 133.55 52.7144C132.75 52.7144 132.098 52.9557 131.596 53.4382C131.093 53.9207 130.841 54.5607 130.841 55.3583C130.841 56.1165 131.083 56.7221 131.566 57.1751ZM134.356 68.5925C132.735 68.5925 131.539 68.4447 130.768 68.1493C129.997 67.8539 129.611 67.3862 129.611 66.7462C129.611 66.4311 129.707 66.1357 129.897 65.86C130.087 65.5842 130.356 65.3676 130.702 65.2101C131.049 65.0525 131.447 64.9836 131.896 65.0033L135.366 65.2396C136.118 65.2888 136.689 65.4587 137.079 65.7492C137.47 66.0397 137.665 66.4163 137.665 66.8791C137.665 67.4305 137.411 67.8539 136.904 68.1493C136.396 68.4447 135.547 68.5925 134.356 68.5925ZM154.93 65.6384C153.953 66.0421 152.938 66.244 151.884 66.244C150.39 66.244 149.075 65.9264 147.937 65.2913C146.8 64.6562 145.914 63.7577 145.28 62.5957C144.645 61.4338 144.328 60.0651 144.328 58.4896C144.328 56.9633 144.616 55.5873 145.192 54.3613C145.768 53.1354 146.605 52.1655 147.703 51.4516C148.801 50.7377 150.122 50.3807 151.664 50.3807C153.207 50.3807 154.503 50.7082 155.552 51.363C156.601 52.0178 157.392 52.9286 157.924 54.0955C158.456 55.2623 158.722 56.6089 158.722 58.1351V59.302H148.56C148.55 60.0799 148.672 60.7568 148.926 61.3329C149.18 61.9089 149.548 62.352 150.031 62.6622C150.515 62.9724 151.098 63.1275 151.781 63.1275C152.514 63.1275 153.155 62.9699 153.707 62.6548C154.258 62.3397 154.642 61.8228 154.856 61.1039H158.708C158.542 62.1871 158.115 63.1127 157.426 63.8807C156.738 64.6488 155.906 65.2347 154.93 65.6384ZM154.725 56.7319H148.545C148.545 56.1707 148.667 55.634 148.911 55.122C149.155 54.61 149.509 54.1939 149.973 53.8739C150.437 53.5539 151 53.3939 151.664 53.3939C152.348 53.3939 152.916 53.5416 153.37 53.837C153.824 54.1324 154.163 54.5361 154.388 55.0481C154.612 55.5602 154.725 56.1214 154.725 56.7319ZM166 61.2516V65.9486H161.314V61.2516H166Z" fill="black"/>
<path fill-rule="evenodd" clip-rule="evenodd" d="M178.299 65.6568C177.73 65.8856 177.054 66 176.271 66C174.978 66 173.861 65.7056 172.921 65.1168C171.982 64.5279 171.26 63.6783 170.756 62.568C170.252 61.4576 170 60.1151 170 58.5404C170 56.9522 170.257 55.5962 170.771 54.4724C171.285 53.3486 172.019 52.4889 172.972 51.8933C173.926 51.2978 175.053 51 176.353 51C177.095 51 177.793 51.1279 178.447 51.3836C179.101 51.6393 179.679 51.9876 180.183 52.4283C180.687 52.8691 181.091 53.3721 181.394 53.9374C181.697 54.5027 181.869 55.0915 181.91 55.7039H179.887C179.792 55.1655 179.581 54.6642 179.254 54.1999C178.927 53.7355 178.513 53.362 178.013 53.0794C177.512 52.7968 176.949 52.6555 176.322 52.6555C175.471 52.6555 174.724 52.8624 174.08 53.2762C173.437 53.6901 172.937 54.3277 172.579 55.1891C172.222 56.0505 172.043 57.1541 172.043 58.5C172.043 59.5363 172.152 60.4246 172.37 61.1649C172.588 61.9051 172.892 62.5057 173.284 62.9667C173.675 63.4277 174.135 63.7675 174.663 63.9862C175.19 64.2049 175.761 64.3143 176.374 64.3143C176.993 64.3143 177.533 64.2066 177.992 63.9913C178.452 63.7759 178.835 63.4983 179.142 63.1585C179.448 62.8186 179.685 62.4519 179.851 62.0582C180.018 61.6645 180.108 61.286 180.122 60.9226L180.183 59.6306H176.588V58.2577L182.144 58.2678V65.7981H180.725V63.5774C180.466 63.9946 180.139 64.3883 179.744 64.7584C179.349 65.1285 178.867 65.428 178.299 65.6568ZM194.789 65.1218C193.836 65.7073 192.702 66 191.388 66C190.074 66 188.937 65.7073 187.977 65.1218C187.017 64.5363 186.276 63.6867 185.755 62.573C185.234 61.4593 184.974 60.1117 184.974 58.5303C184.974 56.9354 185.236 55.5777 185.76 54.4573C186.285 53.3368 187.028 52.4805 187.992 51.8883C188.955 51.2961 190.088 51 191.388 51C192.696 51 193.826 51.2944 194.779 51.8832C195.732 52.4721 196.468 53.3267 196.985 54.4472C197.503 55.5676 197.762 56.9287 197.762 58.5303C197.762 60.1117 197.505 61.4593 196.991 62.573C196.476 63.6867 195.743 64.5363 194.789 65.1218ZM191.388 64.3748C190.489 64.3748 189.716 64.1696 189.07 63.7591C188.423 63.3486 187.926 62.7127 187.578 61.8513C187.231 60.9899 187.057 59.8896 187.057 58.5505C187.057 57.1978 187.231 56.0841 187.578 55.2093C187.926 54.3345 188.423 53.6851 189.07 53.2611C189.716 52.8371 190.489 52.6252 191.388 52.6252C192.294 52.6252 193.067 52.8355 193.707 53.2561C194.347 53.6766 194.837 54.3244 195.178 55.1992C195.518 56.074 195.688 57.1911 195.688 58.5505C195.688 59.8896 195.52 60.9899 195.183 61.8513C194.846 62.7127 194.357 63.3486 193.717 63.7591C193.077 64.1696 192.301 64.3748 191.388 64.3748ZM210.141 51.2019H212L206.76 65.7981H204.482L199.335 51.2019H201.204L205.626 63.6682L210.141 51.2019Z" fill="#797979"/>
</svg>
