<?xml version="1.0" encoding="UTF-8"?>
<svg width="80px" height="80px" viewBox="0 0 80 80" version="1.1" xmlns="http://www.w3.org/2000/svg" xmlns:xlink="http://www.w3.org/1999/xlink">
    <!-- Generator: sketchtool 63.1 (101010) - https://sketch.com -->
    <title>067FDA8B-D39A-4BA3-9DBA-BF14A4D83DCE</title>
    <desc>Created with sketchtool.</desc>
    <g id="Layouts" stroke="none" stroke-width="1" fill="none" fill-rule="evenodd">
        <g id="1.0-Challenge—Listing-Page_Desktop-HD-v8" transform="translate(-1218.000000, -4565.000000)" fill="#FFFFFF" fill-rule="nonzero">
            <g id="Group-2" transform="translate(0.000000, 4453.000000)">
                <g id="challenge-logo_white" transform="translate(1218.000000, 112.000000)">
                    <path d="M0,0 L0,80 L80,80 L80,0 L0,0 Z M19.4002898,62.9910391 C20.6404393,63.0242292 21.8800603,62.9076158 23.0921859,62.6437357 L23.0921859,55.99154 L18.2543752,55.99154 L18.2543752,52.2424445 L27.4216921,52.2424445 L27.4216921,65.6002672 C24.8250174,66.4602843 22.099691,66.8684391 19.3646193,66.8069238 C11.2451232,66.8113764 5.79645524,61.5706573 5.79645524,53.4312907 C5.79645524,45.5145545 11.5661576,40.2515723 19.3869134,40.2515723 C22.0233133,40.1755347 24.6480976,40.6298037 27.1051165,41.5873546 L26.7528704,46.0399622 C24.5903467,44.6329382 22.7399398,44.067457 19.5697247,44.067457 C13.9872924,44.0540992 10.255267,48.0881616 10.2820198,53.5247955 C10.3087727,59.362164 14.3707502,62.9910391 19.4002898,62.9910391 Z M40.8025861,50.4881171 C44.5346115,52.3448545 48.382566,53.8720988 48.382566,59.0148606 C48.382566,64.6295987 43.9683424,66.9761229 38.8719206,66.8113764 C36.998872,66.6934722 35.1522011,66.3096592 33.3875822,65.6715089 L33.8334634,61.6285412 C35.4564709,62.2964323 37.56103,63.0222074 39.3222606,62.9910391 C41.6274663,62.9554183 43.9237543,61.8912451 43.9237543,59.2330383 C43.9237543,57.1803863 42.2829116,56.174097 40.6955746,55.3726276 C37.182031,53.5915846 33.1155947,52.3537597 33.1155947,47.3846496 C33.1155947,42.6871487 36.8609965,40.2604775 41.5026196,40.2604775 C43.4525157,40.2732413 45.3863752,40.613416 47.223275,41.2667669 L46.6168766,45.2429454 C44.4142236,44.3835921 43.4555791,44.0763622 41.6453015,44.0763622 C39.6432951,44.0763622 37.5877829,44.7798742 37.5877829,47.0863249 C37.5922417,48.8629153 39.4426485,49.7979629 40.8204214,50.4881171 L40.8025861,50.4881171 Z M59.6143128,56.4145378 L57.3536952,61.5751099 L62.7889867,58.7298937 L65.9101549,61.1343018 L55.2090068,66.361663 L50.8304537,66.361663 L56.5734032,53.5515111 L59.6143128,56.4145378 Z M56.6269089,53.3912172 L62.7979044,39.6727333 L68.964441,53.3912172 L64.65277,53.3912172 L62.7845279,48.8317471 L60.9073682,53.3912172 L56.6269089,53.3912172 Z M70.266414,66.3438526 L65.9904136,56.4145378 L69.0536172,53.5515111 L74.7742727,66.3438526 L70.266414,66.3438526 Z" id="Shape"></path>
                </g>
            </g>
        </g>
    </g>
</svg>