<?xml version="1.0" encoding="utf-8"?>
<!-- Generator: Adobe Illustrator 24.2.1, SVG Export Plug-In . SVG Version: 6.00 Build 0)  -->
<svg version="1.1" id="Layer_1" xmlns="http://www.w3.org/2000/svg" xmlns:xlink="http://www.w3.org/1999/xlink" x="0px" y="0px"
	 viewBox="0 0 4144.7 603.2" style="enable-background:new 0 0 4144.7 603.2;" xml:space="preserve">
<style type="text/css">
	.st0{fill:#FFFFFF;}
	.st1{fill:#FA9441;}
	.st2{fill:none;stroke:#FA9441;stroke-width:6;stroke-miterlimit:10;}
</style>
<g>
	<path class="st0" d="M310.8,152.5c21.4,0,40.5,4.3,57.2,12.9c16.7,8.6,30.3,20.3,40.6,35.1c10.3,14.8,16.4,31.6,18.2,50.2h-60.2
		c-1.8-9.8-5.2-18.6-10-26.3c-4.9-7.7-11.2-13.7-19.1-18.1c-7.9-4.4-17.3-6.6-28.4-6.6c-13.3,0-24.7,3.2-34.3,9.6
		c-9.6,6.4-16.9,16.8-22.1,31.1c-5.1,14.3-7.7,33.2-7.7,56.7c0,35.4,5.7,61.1,17,76.9c11.4,15.8,27,23.7,47,23.7
		c11,0,20.5-2.5,28.4-7.6c7.9-5.1,14.2-11.7,19.1-20.1c4.9-8.3,8.2-17.5,10-27.5h60.2c-1.7,13.5-5,26.4-9.8,38.7
		c-4.9,12.3-11.7,23.2-20.7,32.8c-8.9,9.6-20.4,17.1-34.5,22.6c-14,5.5-31,8.3-51,8.3c-26.5,0-49.4-6.2-68.7-18.5
		c-19.3-12.3-34.2-29.7-44.6-52c-10.4-22.3-15.7-48.4-15.7-78.2c0-29.9,5.2-55.6,15.6-77.1c10.4-21.5,25.2-38,44.5-49.5
		C261.1,158.3,284.1,152.5,310.8,152.5z"/>
	<path class="st0" d="M698.8,318.9H574.2v122.3h-57.3V156.5h57.3v114.2h124.6V156.5h57.5v284.7h-57.5V318.9z"/>
	<path class="st0" d="M838.4,441.1l102-284.7h60.6l101.8,284.7h-57.3l-23.2-66H919.9l-23.8,66H838.4z M932.7,325h75.8l-37.6-113
		L932.7,325z"/>
	<path class="st0" d="M1184.9,156.5h57.9v236.1h123.6v48.6h-181.5V156.5z"/>
	<path class="st0" d="M1451.7,156.5h57.9v236.1h123.6v48.6h-181.5V156.5z"/>
	<path class="st0" d="M1718.4,441.1V156.5h195.5l-0.2,48.4h-137.6V274h119.5v47.6h-119.9v70.5l140.2,0.2v48.8H1718.4z"/>
	<path class="st0" d="M2196.9,156.5h57.5v284.7h-51.8l-135.3-195.7v195.7H2010V156.5h56.9l129.9,188.4V156.5z"/>
	<path class="st0" d="M2472.5,445.1c-26.1,0-48.8-5.9-68-17.8c-19.2-11.9-34.1-28.7-44.5-50.5c-10.4-21.8-15.7-47.5-15.7-77.2
		c0-30.2,5.5-56.3,16.4-78.3c11-22,26.3-38.9,46-50.9c19.7-11.9,42.7-17.9,68.9-17.9c16.9,0,32.4,2.7,46.3,8.1
		c13.9,5.4,26,12.7,36.3,22.1c10.3,9.3,18.4,19.9,24.2,31.6c5.8,11.7,9,23.9,9.5,36.5h-60.6c-1.7-9.1-5.1-17.3-10.1-24.8
		c-5.1-7.5-11.5-13.5-19.4-18c-7.9-4.5-17.1-6.8-27.6-6.8c-12.6,0-24,3.2-34.3,9.7s-18.3,16.9-24.2,31.1c-5.9,14.2-8.9,32.9-8.9,56
		c0,18.8,1.9,34.4,5.8,46.9c3.9,12.5,9.1,22.3,15.7,29.6c6.6,7.3,14,12.4,22.4,15.5c8.4,3,17,4.5,25.8,4.5c8.4,0,15.9-1.4,22.5-4.2
		c6.6-2.8,12.3-6.5,17-10.9c4.7-4.5,8.5-9.4,11.2-14.7c2.8-5.3,4.5-10.5,5.1-15.7l2.4-17.3H2476v-39.8l119.1,0.6v148.6H2556v-37.2
		c-4.9,6.4-10.9,12.8-18,19.2c-7.2,6.4-16,11.6-26.6,15.8C2500.8,443,2487.8,445.1,2472.5,445.1z"/>
	<path class="st0" d="M2695.5,441.1V156.5h195.5l-0.2,48.4h-137.6V274h119.5v47.6h-119.9v70.5l140.2,0.2v48.8H2695.5z"/>
	<path class="st0" d="M2967.8,441.1v-62.6h63v62.6H2967.8z"/>
	<path class="st1" d="M3231.1,445.1c-23.9,0-44.3-5.5-61.3-16.5c-17-11-30-27.3-38.9-48.9c-8.9-21.6-13.4-48.3-13.4-80.2
		c0-31.6,4.5-58.4,13.4-80.2c8.9-21.9,21.9-38.4,38.9-49.7c17-11.3,37.4-16.9,61.3-16.9c11.8,0,23.3,2.3,34.6,6.9
		c11.2,4.6,21.4,10.9,30.5,18.8c9.1,7.9,16.6,17,22.4,27.2c5.8,10.2,9.3,20.9,10.3,32.2h-17.3c-2-11.9-6.7-23.2-14.3-33.7
		c-7.5-10.5-17-19-28.4-25.5c-11.4-6.5-24-9.7-37.8-9.7c-20,0-37.2,4.8-51.9,14.5c-14.6,9.6-25.9,24.2-33.8,43.5
		c-7.9,19.4-11.8,43.6-11.8,72.7c0,21.8,2.3,40.9,6.8,57.2c4.5,16.3,11,29.9,19.5,40.8c8.5,10.8,18.7,18.9,30.7,24.3
		c12,5.4,25.5,8.1,40.5,8.1c15.2,0,28.4-2.8,39.5-8.3c11.1-5.5,20.2-12.7,27.5-21.5c7.2-8.8,12.6-18.2,16.1-28.3s5.3-19.6,5.3-28.6
		V310h-79.5v-13.8h94.9v144.9h-15.4v-49.6c-5.1,10-11.8,19-20,27.1c-8.2,8.1-18,14.5-29.3,19.3
		C3258.8,442.7,3245.8,445.1,3231.1,445.1z"/>
	<path class="st1" d="M3551.4,445.1c-23.9,0-44.5-5.5-61.9-16.6c-17.4-11.1-30.8-27.5-40.2-49.1c-9.4-21.7-14.1-48.3-14.1-79.9
		c0-31.9,4.7-58.7,14.1-80.5c9.4-21.8,22.8-38.3,40.2-49.5c17.4-11.2,38-16.8,61.9-16.8c23.9,0,44.4,5.6,61.6,16.7
		c17.2,11.2,30.4,27.6,39.6,49.4c9.2,21.8,13.8,48.7,13.8,80.7c0,31.6-4.6,58.2-13.8,79.8c-9.2,21.6-22.4,38-39.6,49.1
		C3595.8,439.5,3575.3,445.1,3551.4,445.1z M3551.4,428.9c21.3,0,39.1-4.7,53.7-14.2c14.5-9.5,25.5-23.8,32.9-43
		c7.4-19.2,11.1-43.3,11.1-72.4c0-29.4-3.8-53.7-11.3-73c-7.5-19.3-18.6-33.7-33.1-43.3c-14.5-9.6-32.3-14.4-53.3-14.4
		c-21,0-38.9,4.8-53.6,14.5c-14.7,9.6-25.9,24.2-33.7,43.5c-7.7,19.4-11.6,43.6-11.6,72.7s3.9,53.3,11.6,72.5
		c7.7,19.2,19,33.5,33.7,42.9C3512.5,424.2,3530.4,428.9,3551.4,428.9z"/>
	<path class="st1" d="M3967.2,156.5l-103.4,284.7H3841l-100.8-284.7h16.9l95.5,268.5l98-268.5H3967.2z"/>
	<path class="st2" d="M3231.1,445.1c-23.9,0-44.3-5.5-61.3-16.5c-17-11-30-27.3-38.9-48.9c-8.9-21.6-13.4-48.3-13.4-80.2
		c0-31.6,4.5-58.4,13.4-80.2c8.9-21.9,21.9-38.4,38.9-49.7c17-11.3,37.4-16.9,61.3-16.9c11.8,0,23.3,2.3,34.6,6.9
		c11.2,4.6,21.4,10.9,30.5,18.8c9.1,7.9,16.6,17,22.4,27.2c5.8,10.2,9.3,20.9,10.3,32.2h-17.3c-2-11.9-6.7-23.2-14.3-33.7
		c-7.5-10.5-17-19-28.4-25.5c-11.4-6.5-24-9.7-37.8-9.7c-20,0-37.2,4.8-51.9,14.5c-14.6,9.6-25.9,24.2-33.8,43.5
		c-7.9,19.4-11.8,43.6-11.8,72.7c0,21.8,2.3,40.9,6.8,57.2c4.5,16.3,11,29.9,19.5,40.8c8.5,10.8,18.7,18.9,30.7,24.3
		c12,5.4,25.5,8.1,40.5,8.1c15.2,0,28.4-2.8,39.5-8.3c11.1-5.5,20.2-12.7,27.5-21.5c7.2-8.8,12.6-18.2,16.1-28.3s5.3-19.6,5.3-28.6
		V310h-79.5v-13.8h94.9v144.9h-15.4v-49.6c-5.1,10-11.8,19-20,27.1c-8.2,8.1-18,14.5-29.3,19.3
		C3258.8,442.7,3245.8,445.1,3231.1,445.1z"/>
	<path class="st2" d="M3551.4,445.1c-23.9,0-44.5-5.5-61.9-16.6c-17.4-11.1-30.8-27.5-40.2-49.1c-9.4-21.7-14.1-48.3-14.1-79.9
		c0-31.9,4.7-58.7,14.1-80.5c9.4-21.8,22.8-38.3,40.2-49.5c17.4-11.2,38-16.8,61.9-16.8c23.9,0,44.4,5.6,61.6,16.7
		c17.2,11.2,30.4,27.6,39.6,49.4c9.2,21.8,13.8,48.7,13.8,80.7c0,31.6-4.6,58.2-13.8,79.8c-9.2,21.6-22.4,38-39.6,49.1
		C3595.8,439.5,3575.3,445.1,3551.4,445.1z M3551.4,428.9c21.3,0,39.1-4.7,53.7-14.2c14.5-9.5,25.5-23.8,32.9-43
		c7.4-19.2,11.1-43.3,11.1-72.4c0-29.4-3.8-53.7-11.3-73c-7.5-19.3-18.6-33.7-33.1-43.3c-14.5-9.6-32.3-14.4-53.3-14.4
		c-21,0-38.9,4.8-53.6,14.5c-14.7,9.6-25.9,24.2-33.7,43.5c-7.7,19.4-11.6,43.6-11.6,72.7s3.9,53.3,11.6,72.5
		c7.7,19.2,19,33.5,33.7,42.9C3512.5,424.2,3530.4,428.9,3551.4,428.9z"/>
	<path class="st2" d="M3967.2,156.5l-103.4,284.7H3841l-100.8-284.7h16.9l95.5,268.5l98-268.5H3967.2z"/>
</g>
</svg>
