<svg width="82" height="83" viewBox="0 0 82 83" fill="none" xmlns="http://www.w3.org/2000/svg">
<g clip-path="url(#clip0)">
<path d="M73.1431 75.4556C72.5698 75.4556 72.1598 74.9623 72.1598 74.4722C72.1598 68.8155 74.2098 65.2054 76.5865 61.0259C76.9132 60.3692 77.3232 59.7125 77.6531 59.0592C79.5398 55.6158 79.7031 51.3525 79.7031 51.3525C79.7031 50.7791 80.1964 50.3691 80.6865 50.3691C81.2598 50.3691 81.6698 50.8624 81.6698 51.4358C81.6698 51.5992 81.5065 56.1925 79.3732 60.0458C78.9632 60.7024 78.6364 61.3591 78.3065 62.0125C76.0932 65.9491 74.1232 69.3092 74.1232 74.4757C74.2097 74.9657 73.7164 75.4558 73.143 75.4558L73.1431 75.4556Z" fill="#FA9441"/>
<path d="M70.0263 45.1978C69.453 45.1978 68.9597 44.7045 69.043 44.1311C69.043 43.0645 69.1263 42.1645 69.1263 41.3445C69.2896 37.4911 69.2896 36.3411 68.633 35.9311C68.0596 35.5211 67.2397 35.6044 65.5997 37.2445C65.1897 37.6545 64.533 37.6545 64.2063 37.2445C63.7963 36.8345 63.7963 36.1778 64.2063 35.8511C65.1096 34.9478 67.403 32.6544 69.783 34.2944C71.423 35.3611 71.3396 37.0011 71.1763 41.4278C71.1763 42.2478 71.093 43.1511 71.093 44.2145C71.0129 44.7878 70.6029 45.1978 70.0264 45.1978H70.0263Z" fill="#FA9441"/>
<path d="M75.3563 48.315C74.7829 48.315 74.2896 47.8217 74.3729 47.2483C74.3729 46.1817 74.4562 45.2816 74.4562 44.4616C74.6196 40.6083 74.6196 39.4583 73.9629 39.0483C73.3896 38.6383 72.5696 38.7216 70.9296 40.3616C70.5196 40.7716 69.8629 40.7716 69.5363 40.3616C69.1263 39.9516 69.1263 39.295 69.5363 38.9683C70.4396 38.065 72.7329 35.7716 75.1129 37.4116C76.7529 38.4783 76.6696 40.1183 76.5063 44.545C76.5063 45.365 76.423 46.2683 76.423 47.3316C76.3429 47.905 75.9329 48.315 75.3563 48.315H75.3563Z" fill="#FA9441"/>
<path d="M80.6864 52.4146C80.113 52.4146 79.6197 51.9213 79.703 51.3479C79.703 50.2813 79.7863 49.3813 79.7863 48.5613C79.9497 44.7079 79.9497 43.5579 79.293 43.1479C78.7197 42.7379 77.9829 42.8212 76.2597 44.4613C75.8497 44.8713 75.193 44.8713 74.8663 44.4613C74.4563 44.0513 74.4563 43.3946 74.8663 43.0679C75.7696 42.1646 78.063 39.8712 80.443 41.5112C82.083 42.5779 81.9997 44.2179 81.8363 48.6446C81.8363 49.4646 81.7531 50.3679 81.7531 51.4313C81.673 52.0046 81.263 52.4146 80.6864 52.4146H80.6864Z" fill="#FA9441"/>
<path d="M76.7536 82.0976C76.1802 82.0976 75.7702 81.6043 75.7702 81.1142V76.4409C75.7702 75.9476 75.3602 75.4575 74.7869 75.4575L52.9732 75.4543C52.4799 75.4543 51.9899 75.8643 51.9899 76.4377V81.111C51.9899 81.6844 51.4966 82.0944 51.0065 82.0944C50.4332 82.0944 50.0232 81.6011 50.0232 81.111V76.4377C50.0232 74.7977 51.3365 73.4844 52.9765 73.4844H74.7065C76.3465 73.4844 77.6598 74.7977 77.6598 76.4377V81.111C77.7367 81.6043 77.2434 82.0976 76.7533 82.0976L76.7536 82.0976Z" fill="#FA9441"/>
<path d="M54.8563 75.4537C54.283 75.4537 53.873 74.9604 53.873 74.4703V67.9936C53.873 58.8105 51.4963 56.02 48.2163 52.0873L47.723 51.4306V51.3474C47.6397 51.184 45.0163 47.6574 45.3463 43.394C45.5097 41.4273 46.9863 39.8674 49.0363 39.7873C51.003 39.624 52.7263 40.934 53.1363 42.8207C53.2196 43.1474 53.2997 43.5574 53.2997 43.9674C53.383 45.3607 54.203 46.5107 55.3497 47.084C55.923 47.4107 56.663 47.3307 57.2363 47.0007C57.8097 46.674 58.1396 46.0174 58.1396 45.3607L58.1364 26.1744C58.1364 24.1244 59.7764 22.4844 61.8264 22.4844C63.8764 22.4844 65.5164 24.1244 65.5164 26.1744V42.248C65.5164 42.8214 65.0232 43.2314 64.5331 43.2314C63.9597 43.2314 63.5498 42.7381 63.5498 42.248V26.1744C63.5498 25.2711 62.813 24.4511 61.8264 24.4511C60.9231 24.4511 60.1031 25.1878 60.1031 26.1744V45.4444C60.1031 46.8377 59.3664 48.0677 58.2165 48.8077C57.0698 49.5444 55.5931 49.6277 54.3631 48.971C52.5598 48.0677 51.4098 46.2644 51.2465 44.2144C51.2465 43.8877 51.1632 43.641 51.0831 43.3111C50.8365 42.1644 49.8531 41.7544 49.1164 41.8344C48.3797 41.9177 47.3931 42.4078 47.3131 43.6378C47.0664 46.9178 49.1164 49.9511 49.2798 50.1978L49.773 50.7711C53.1364 54.8711 55.8397 58.0678 55.8397 67.9911V74.4678C55.8429 74.9643 55.4329 75.4544 54.8564 75.4544L54.8563 75.4537Z" fill="#FA9441"/>
<path d="M70.1936 31.0113H64.8636C64.2902 31.0113 63.8803 30.5181 63.8803 30.028C63.8803 29.4546 64.3735 29.0446 64.8636 29.0446H70.1936C71.6703 29.0446 72.9003 27.8146 72.9003 26.338L72.8971 4.8548C72.8971 3.37815 71.6671 2.14815 70.1904 2.14815H4.83722C3.36057 2.14815 2.13057 3.37815 2.13057 4.8548V26.338C2.13057 27.8146 3.36057 29.0446 4.83722 29.0446H53.874C54.4474 29.0446 54.8574 29.5379 54.8574 30.028C54.8574 30.6013 54.3641 31.0113 53.874 31.0113H4.83722C2.21388 31.0113 0.0805664 28.878 0.0805664 26.2547L0.0837692 4.85431C0.0837692 2.23097 2.21388 0.0976562 4.83723 0.0976562H70.274C72.8974 0.0976562 75.0307 2.23097 75.0307 4.85431V26.3375C74.9474 28.8808 72.8174 31.0108 70.194 31.0108L70.1936 31.0113Z" fill="#FA9441"/>
</g>
<defs>
<clipPath id="clip0">
<rect width="82" height="82" fill="white" transform="translate(0 0.0976562)"/>
</clipPath>
</defs>
</svg>
