<svg xmlns="http://www.w3.org/2000/svg" xmlns:xlink="http://www.w3.org/1999/xlink">

    <symbol id="vision01" role="img" aria-labelledby="vision01_title" viewBox="-62 0 512 512.00102">
    	<title id="vision01_title"></title>
        <path d="m194.253906 0c-107.113281 0-194.253906 87.140625-194.253906 194.253906 0 120.9375 176.09375 299.496094 183.589844 307.039063l10.644531 10.707031 10.664063-10.6875c7.496093-7.515625 183.609374-185.445312 183.609374-307.058594 0-107.113281-87.144531-194.253906-194.253906-194.253906zm.015625 468.984375c-15.820312-16.839844-46.988281-51.238281-77.820312-92.277344-56.507813-75.222656-86.378907-138.316406-86.378907-182.453125 0-90.53125 73.652344-164.183594 164.183594-164.183594s164.183594 73.652344 164.183594 164.183594c0 44.40625-29.867188 107.582032-86.371094 182.691406-30.820312 40.964844-61.972656 75.25-77.796875 92.039063zm0 0"/>
        <path d="m194.304688 72.167969c-62.175782 0-112.761719 50.582031-112.761719 112.757812s50.585937 112.761719 112.761719 112.761719c62.175781 0 112.757812-50.585938 112.757812-112.761719s-50.582031-112.757812-112.757812-112.757812zm0 195.449219c-45.597657 0-82.691407-37.097657-82.691407-82.691407s37.09375-82.691406 82.691407-82.691406c45.597656 0 82.691406 37.097656 82.691406 82.691406s-37.09375 82.691407-82.691406 82.691407zm0 0"/>
    </symbol>

    <symbol id="vision02" role="img" aria-labelledby="vision02_title" viewBox="0 0 512 512">
    	<title id="vision02_title"></title>
        <path d="m437.019531 74.980469c-48.351562-48.351563-112.640625-74.980469-181.019531-74.980469s-132.667969 26.628906-181.019531 74.980469c-48.351563 48.351562-74.980469 112.640625-74.980469 181.019531s26.628906 132.667969 74.980469 181.019531c48.351562 48.351563 112.640625 74.980469 181.019531 74.980469s132.667969-26.628906 181.019531-74.980469c48.351563-48.351562 74.980469-112.640625 74.980469-181.019531s-26.628906-132.667969-74.980469-181.019531zm-181.019531 407.019531c-124.617188 0-226-101.382812-226-226s101.382812-226 226-226 226 101.382812 226 226-101.382812 226-226 226zm0 0"/>
        <path d="m256 63.058594c-106.386719 0-192.941406 86.554687-192.941406 192.941406s86.554687 192.941406 192.941406 192.941406 192.941406-86.554687 192.941406-192.941406-86.554687-192.941406-192.941406-192.941406zm162.242188 207.941406c-3.089844 33.683594-16.464844 64.433594-36.964844 89.066406l-19.210938-19.214844-21.214844 21.214844 19.214844 19.214844c-24.632812 20.496094-55.382812 33.875-89.066406 36.960938v-27.242188h-30v27.242188c-33.683594-3.089844-64.433594-16.464844-89.066406-36.964844l19.210937-19.210938-21.210937-21.214844-19.214844 19.214844c-20.496094-24.632812-33.871094-55.382812-36.960938-89.066406h27.242188v-30h-27.242188c3.089844-33.683594 16.464844-64.433594 36.964844-89.066406l19.210938 19.214844 21.214844-21.214844-19.214844-19.214844c24.632812-20.496094 55.382812-33.875 89.066406-36.960938v27.242188h30v-27.242188c33.683594 3.089844 64.433594 16.464844 89.066406 36.964844l-19.210937 19.210938 21.210937 21.214844 19.214844-19.214844c20.496094 24.632812 33.875 55.382812 36.964844 89.066406h-27.246094v30zm0 0"/>
        <path d="m271 152.332031h-30v119.363281l58.777344 66.257813 22.445312-19.90625-51.222656-57.742187zm0 0"/>
    </symbol>

    <symbol id="vision03" role="img" aria-labelledby="vision03_title" viewBox="0 0 512 512">
    	<title id="vision03_title"></title>
        <path d="M358.466,267.97c148.8-28.384,153.504-217.792,153.536-219.744c0.064-4.288-1.6-8.416-4.608-11.456
			s-7.104-4.768-11.392-4.768h-112v-16c0-8.832-7.168-16-16-16h-224c-8.832,0-16,7.168-16,16v16h-112
			c-4.288,0-8.384,1.728-11.392,4.736c-3.008,3.072-4.672,7.2-4.608,11.488c0.032,1.952,4.736,191.328,153.536,219.744
			c13.92,18.688,32.576,33.6,54.464,42.528v41.504h-32c-8.832,0-16,7.168-16,16v48h-16c-8.832,0-16,7.168-16,16v64
			c0,8.832,7.168,16,16,16h224c8.832,0,16-7.168,16-16v-64c0-8.832-7.168-16-16-16h-16v-48c0-8.832-7.168-16-16-16h-32v-41.504
			C325.89,301.602,344.546,286.69,358.466,267.97z M384.002,192.002v-128h94.944c-3.808,38.656-21.44,134.112-101.184,165.472
			C381.442,217.538,384.002,205.122,384.002,192.002z M33.058,64.002h94.944v128c0,13.12,2.56,25.536,6.24,37.472
			C54.498,198.114,36.866,102.658,33.058,64.002z M352.002,448.002v32h-192v-32H352.002z M320.002,384.002v32h-128v-32H320.002z
			 M240.002,352.002V318.37c5.312,0.672,10.528,1.632,16,1.632c5.472,0,10.688-0.96,16-1.632v33.632H240.002z M256.002,288.002
			c-33.184,0-62.464-16.928-79.712-42.592c-0.256-0.416-0.416-0.896-0.704-1.312c-9.76-15.008-15.584-32.864-15.584-52.096v-160h192
			v160c0,19.232-5.824,37.088-15.584,52.096c-0.288,0.384-0.448,0.864-0.704,1.28C318.466,271.074,289.186,288.002,256.002,288.002z
			"/>
		<path d="M256.002,144.002c-9.792,0-16-5.248-16-8s6.208-8,16-8c4.864,0,9.216,1.184,12.544,3.392
			c7.392,4.832,17.28,2.912,22.208-4.416c4.896-7.36,2.944-17.312-4.416-22.208c-4.352-2.88-9.184-5.088-14.336-6.56V80.002
			c0-8.832-7.168-16-16-16c-8.832,0-16,7.168-16,16v18.464c-18.592,5.504-32,20.192-32,37.536c0,22.048,21.536,40,48,40
			c9.792,0,16,5.248,16,8s-6.208,8-16,8c-4.864,0-9.216-1.184-12.544-3.392c-7.36-4.864-17.28-2.912-22.208,4.416
			c-4.896,7.36-2.944,17.312,4.416,22.208c4.352,2.88,9.184,5.088,14.336,6.56v18.208c0,8.832,7.168,16,16,16
			c8.832,0,16-7.168,16-16v-18.464c18.592-5.504,32-20.192,32-37.536C304.002,161.954,282.466,144.002,256.002,144.002z"/>
    </symbol>

    <symbol id="vision04" role="img" aria-labelledby="vision04_title" viewBox="-16 0 512 512">
    	<title id="vision04_title"></title>
        <path d="m0 180v332h120v-240.929688c9.730469 5.015626 19.75 9.390626 30 13.125v75.804688h30v152h120v-152h30v-72.800781c10.230469-3.316407 20.253906-7.257813 30-11.820313v236.621094h120v-332c0-33.085938-26.914062-60-60-60-29.085938 0-53.398438 20.808594-58.851562 48.320312-10.238282 8.828126-21.390626 16.347657-33.21875 22.46875-8.824219-40.425781-44.894532-70.789062-87.929688-70.789062-41.394531 0-76.507812 28.296875-86.882812 66.554688-22.171876-12.992188-36.507813-28.726563-37.835938-29.90625-9.320312-22.0625-31.09375-36.648438-55.28125-36.648438-33.085938 0-60 26.914062-60 60zm300 150h-30v152h-60v-152h-30v-36.878906c17.519531 4.085937 35.53125 6.375 53.789062 6.800781v.078125c9.542969-.328125 32.976563 1.554688 66.210938-5.007812zm-16.769531-62.542969c1.144531-3.960937 1.769531-8.136719 1.769531-12.457031 0-6.253906-1.285156-12.210938-3.601562-17.625 28.109374-4.5625 54.859374-14.996094 78.601562-30.652344v35.046875c-23.816406 13.011719-49.820312 21.6875-76.769531 25.6875zm106.769531-87.457031c0-16.542969 13.457031-30 30-30s30 13.457031 30 30v302h-60zm-150-30c30.511719 0 55.757812 22.894531 59.503906 52.40625-30.820312 9.464844-54.554687 7.296875-59.503906 7.59375-20.472656 0-40.402344-3.558594-59.085938-10.363281 4.941407-28.132813 29.621094-49.636719 59.085938-49.636719zm-210 30c0-16.542969 13.457031-30 30-30 12.707031 0 24.082031 8.042969 28.304688 20.015625l1.128906 3.210937c3.863281 2.667969 54.550781 66.773438 150.566406 66.773438 8.269531 0 15 6.730469 15 15s-6.730469 15-15 15c-87.179688 0-137.054688-46.21875-150-52.746094v264.746094h-60zm0 0"/>
        <path d="m480 60c0-33.085938-26.914062-60-60-60s-60 26.914062-60 60 26.914062 60 60 60 60-26.914062 60-60zm-60 30c-16.542969 0-30-13.457031-30-30s13.457031-30 30-30 30 13.457031 30 30-13.457031 30-30 30zm0 0"/>
        <path d="m120 60c0-33.085938-26.914062-60-60-60s-60 26.914062-60 60 26.914062 60 60 60 60-26.914062 60-60zm-60 30c-16.542969 0-30-13.457031-30-30s13.457031-30 30-30 30 13.457031 30 30-13.457031 30-30 30zm0 0"/>
        <path d="m300 60c0-33.085938-26.914062-60-60-60s-60 26.914062-60 60 26.914062 60 60 60 60-26.914062 60-60zm-60 30c-16.542969 0-30-13.457031-30-30s13.457031-30 30-30 30 13.457031 30 30-13.457031 30-30 30zm0 0"/>
    </symbol>

    <symbol id="vision05" role="img" aria-labelledby="vision05_title" viewBox="0 0 512 512">
    	<title id="vision05_title"></title>
        <path d="M256,0C115.03,0,0,115.05,0,256c0,140.97,115.05,256,256,256c140.97,0,256-115.05,256-256C512,115.03,396.95,0,256,0z
			 M455.045,149.049l-69.417,31.553c-13.087-22.413-31.817-41.143-54.23-54.23l31.553-69.417
			C401.909,77.972,434.028,110.091,455.045,149.049z M376,256c0,66.168-53.832,120-120,120s-120-53.832-120-120s53.832-120,120-120
			S376,189.832,376,256z M256,30c28.026,0,54.869,5.142,79.656,14.509l-31.547,69.403C289.001,108.783,272.819,106,256,106
			c-16.819,0-33.001,2.783-48.109,7.912l-31.547-69.403C201.131,35.142,227.974,30,256,30z M149.049,56.955l31.553,69.417
			c-22.413,13.087-41.143,31.817-54.23,54.23l-69.417-31.553C77.972,110.091,110.091,77.972,149.049,56.955z M30,256
			c0-28.026,5.142-54.869,14.509-79.656l69.403,31.547C108.783,222.999,106,239.181,106,256c0,16.819,2.783,33.001,7.912,48.109
			l-69.403,31.547C35.142,310.869,30,284.026,30,256z M56.955,362.951l69.417-31.553c13.087,22.413,31.817,41.143,54.23,54.23
			l-31.553,69.417C110.091,434.028,77.972,401.909,56.955,362.951z M256,482c-28.026,0-54.869-5.142-79.656-14.509l31.547-69.403
			C222.999,403.217,239.181,406,256,406c16.819,0,33.001-2.783,48.109-7.912l31.547,69.403C310.869,476.858,284.026,482,256,482z
			 M362.951,455.045l-31.553-69.417c22.413-13.087,41.143-31.817,54.23-54.23l69.417,31.553
			C434.028,401.909,401.909,434.028,362.951,455.045z M398.088,304.109C403.217,289.001,406,272.819,406,256
			c0-16.819-2.783-33.001-7.912-48.109l69.403-31.547C476.858,201.131,482,227.974,482,256s-5.142,54.869-14.509,79.656
			L398.088,304.109z"/>
		<path d="M256,166c-24.813,0-45,20.187-45,45h30c0-8.271,6.729-15,15-15s15,6.729,15,15c0,4.889-2.283,9.334-6.263,12.196
			C249.874,233.881,241,251.177,241,269.464V286h30v-16.536c0-8.656,4.205-16.846,11.248-21.909C293.99,239.114,301,225.448,301,211
			C301,186.187,280.813,166,256,166z"/>
		<rect x="241" y="301" width="30" height="30"/>
    </symbol>

    <symbol id="check" role="img" aria-labelledby="check_title" viewBox="0 0 174.239 174.239">
    	<title id="check_title"></title>
        <path d="M0,0v174.239h174.239V0H0z M159.305,159.305H14.935V14.935h144.37V159.305z"/>
		<polygon points="135.016,61.47 123.494,51.97 78.041,107.091 49.651,84.319 40.307,95.968 80.189,127.957 	"/>
    </symbol>

    <symbol id="button-arrow" role="img" aria-labelledby="button-arrow_title" viewBox="0 0 20.633 20.633">
        <title id="button-arrow_title"></title>
        <path d="M15.621,9.844l-9.65-9.649C5.842,0.064,5.674,0,5.5,0C5.329,0,5.157,0.064,5.027,0.195L5.014,0.207
		C4.888,0.334,4.817,0.506,4.817,0.682v4.682c0,0.178,0.071,0.348,0.197,0.471l4.481,4.482l-4.481,4.479
		c-0.126,0.126-0.197,0.294-0.197,0.475v4.68c0,0.18,0.071,0.354,0.197,0.475l0.013,0.01c0.124,0.127,0.294,0.197,0.473,0.197
		s0.348-0.07,0.474-0.197l9.647-9.646C15.881,10.531,15.881,10.104,15.621,9.844z"/>
    </symbol>

    <symbol id="funding-prize01" role="img" aria-labelledby="funding-prize01_title" viewBox="0 0 512 512">
        <title id="funding-prize01_title"></title>
        <path d="M481.991,33.999h-88.552V10c0-5.523-4.478-10-10-10h-254.88c-5.522,0-10,4.477-10,10v23.999H30.012
			c-16.548,0-30.011,13.457-30.011,29.999v117.995c0,10.782,5.829,20.783,15.212,26.099l59.827,33.896v166.994
			c0,4.044,2.436,7.69,6.172,9.238c3.735,1.547,8.036,0.693,10.897-2.165l23.946-23.934l24.113,24.1
			c1.913,1.912,4.47,2.927,7.071,2.927c1.289,0,2.589-0.25,3.826-0.762c3.736-1.548,6.172-5.194,6.172-9.238V359.5
			c0-5.523-4.478-10-10-10c-5.522,0-10,4.477-10,10v25.516l-14.113-14.106c-3.906-3.902-10.234-3.902-14.139,0l-13.946,13.939
			V201.635c0-14.99,9.905-27.712,23.519-31.974v25.773c0,35.382,11.634,70.504,32.76,98.896c0.236,0.318,0.492,0.622,0.766,0.91
			l69.906,73.738l-0.003,33.666l-45.208,30.931c-0.51,0.349-0.986,0.744-1.423,1.18c-4.622,4.619-6.833,10.914-6.311,17.182h-52.906
			c-5.522,0-10,4.477-10,10V502c0,5.523,4.478,10,10,10h279.724c5.522,0,10-4.477,10-10v-40.063c0-5.523-4.478-10-10-10h-52.994
			c0.522-6.268-1.688-12.562-6.311-17.182c-0.438-0.438-0.915-0.833-1.426-1.183l-45.246-30.931V368.98l64.877-68.241v108.409
			c0,4.044,2.436,7.69,6.172,9.238c1.237,0.513,2.537,0.762,3.826,0.762c2.602,0,5.158-1.016,7.071-2.927l24.113-24.1l23.946,23.934
			c2.861,2.859,7.163,3.712,10.897,2.165c3.736-1.548,6.172-5.194,6.172-9.238V241.988l59.827-33.896
			c9.383-5.316,15.212-15.316,15.212-26.099V63.998C512.001,47.456,498.539,33.999,481.991,33.999z M118.558,149.088
			c-16.155,3.067-29.759,13.407-37.26,27.479l-21.277-12.054V93.997h58.537V149.088z M118.559,73.998H50.022
			c-5.522,0-10,4.477-10,10v86.344c0,3.602,1.937,6.925,5.07,8.701l30.226,17.125c-0.184,1.798-0.278,3.623-0.278,5.469V219
			l-49.968-28.31c-3.128-1.772-5.071-5.104-5.071-8.697V63.998c0-5.514,4.491-9.999,10.011-9.999h88.547V73.998z M385.864,471.937
			V492h-0.001H126.14v-20.063H385.864z M322.78,449.355c0.186,0.331,0.302,0.817,0.026,1.482c-0.443,1.069-1.271,1.099-1.618,1.1
			H190.727c-0.347-0.001-1.175-0.031-1.618-1.1c-0.275-0.666-0.158-1.152,0.027-1.483l45.943-31.435h41.716L322.78,449.355z
			 M241.988,397.92l0.002-22.935h27.897v22.935H241.988z M373.44,195.552c0,30.841-10.057,61.468-28.33,86.316l-69.514,73.117
			h-39.314l-69.267-73.064c-18.354-24.881-28.456-55.571-28.456-86.486v-37.22c0-0.026,0.004-0.051,0.004-0.077
			s-0.004-0.051-0.004-0.077V84.074c0-0.026,0.004-0.051,0.004-0.077s-0.004-0.051-0.004-0.077V44.076
			c0-0.026,0.004-0.051,0.004-0.077s-0.004-0.051-0.004-0.077V20H373.44V195.552z M416.962,384.849l-13.946-13.939
			c-3.906-3.901-10.234-3.902-14.139,0l-14.113,14.106V271.891c12.149-23.489,18.676-49.845,18.676-76.339V169.66
			c13.615,4.261,23.522,16.983,23.522,31.975V384.849z M430.704,176.568c-7.501-14.074-21.107-24.414-37.265-27.48V93.997h58.541
			v70.516L430.704,176.568z M492.001,181.993c0,3.593-1.943,6.925-5.071,8.697L436.962,219v-17.365c0-1.846-0.094-3.67-0.278-5.468
			l30.226-17.125c3.134-1.775,5.07-5.099,5.07-8.701V83.997c0-5.523-4.478-10-10-10h-68.541V53.999h88.552
			c5.52,0,10.01,4.485,10.01,9.999V181.993z"/>
		<path d="M154.31,315.26c-1.859-1.86-4.439-2.93-7.069-2.93c-2.64,0-5.211,1.07-7.07,2.93c-1.86,1.86-2.93,4.44-2.93,7.07
			c0,2.64,1.069,5.21,2.93,7.08c1.859,1.86,4.439,2.92,7.07,2.92c2.63,0,5.199-1.06,7.069-2.92c1.86-1.87,2.931-4.44,2.931-7.08
			C157.241,319.7,156.171,317.12,154.31,315.26z"/>
    </symbol>

    <symbol id="funding-prize02" role="img" aria-labelledby="funding-prize02_title" viewBox="0 0 512 512">
        <title id="funding-prize02_title"></title>
        <path d="M335.99,160.828c-1.177-3.62-4.308-6.257-8.074-6.804l-43.503-6.31L264.948,108.3c-1.686-3.412-5.161-5.572-8.966-5.572
			h-0.002c-3.807,0.001-7.282,2.163-8.966,5.577l-19.443,39.424l-43.5,6.333c-3.767,0.548-6.895,3.188-8.07,6.808
			s-0.193,7.594,2.533,10.25l31.486,30.675l-7.419,43.327c-0.643,3.752,0.901,7.543,3.981,9.78c1.742,1.265,3.804,1.908,5.876,1.908
			c1.592,0,3.191-0.38,4.655-1.15l38.903-20.466l38.914,20.445c3.369,1.771,7.452,1.475,10.531-0.764
			c3.079-2.238,4.62-6.03,3.976-9.781l-7.442-43.323l31.47-30.691C336.188,168.422,337.167,164.448,335.99,160.828z
			 M284.266,191.124c-2.356,2.298-3.431,5.608-2.874,8.852l4.902,28.535l-25.631-13.466c-2.913-1.531-6.394-1.53-9.307,0.002
			l-25.624,13.48l4.887-28.538c0.556-3.244-0.521-6.554-2.878-8.851l-20.738-20.204l28.651-4.171
			c3.257-0.474,6.072-2.521,7.528-5.472l12.806-25.966l12.821,25.96c1.458,2.951,4.274,4.996,7.531,5.468l28.653,4.156
			L284.266,191.124z"/>
		<path d="M480.738,439.367l-82.656-143.77c24.961-31.158,39.916-70.661,39.916-113.597c0-100.355-81.645-182-182-182
			s-182,81.645-182,182c0,42.936,14.954,82.439,39.916,113.597l-82.656,143.77c-1.898,3.302-1.756,7.396,0.367,10.559
			c2.123,3.162,5.862,4.844,9.633,4.337l64.513-8.663l24.754,60.201c1.45,3.525,4.778,5.92,8.582,6.174
			c0.224,0.015,0.447,0.022,0.669,0.022c3.555,0,6.864-1.893,8.658-5l83.443-144.527c0.013-0.022,0.022-0.045,0.035-0.068
			c7.884,1.047,15.922,1.597,24.088,1.597s16.204-0.55,24.088-1.597c0.013,0.022,0.022,0.045,0.035,0.068l83.443,144.527
			c1.794,3.107,5.104,5,8.658,5c0.222,0,0.445-0.007,0.669-0.022c3.804-0.254,7.132-2.649,8.582-6.174L406.23,445.6l64.513,8.663
			c3.779,0.507,7.51-1.175,9.633-4.337C482.493,446.763,482.636,442.669,480.738,439.367z M141.284,479.379l-18.02-43.822
			l16.171-26.389c2.886-4.709,1.408-10.866-3.301-13.751s-10.866-1.408-13.751,3.301l-16.341,26.666l-47.33,6.355l69.276-120.496
			c22.692,22.477,51.248,39.04,83.144,47.156L141.284,479.379z M255.997,344c-89.327,0-162-72.673-162-162s72.673-162,162-162
			s162,72.673,162,162S345.324,344,255.997,344z M405.953,425.384l-16.341-26.666c-2.885-4.709-9.042-6.188-13.751-3.301
			c-4.709,2.886-6.187,9.042-3.301,13.751l16.171,26.389l-18.02,43.822l-69.848-120.98c31.896-8.116,60.453-24.679,83.144-47.156
			l69.276,120.496L405.953,425.384z"/>
		<path d="M255.997,52c-22.316,0-44.333,5.752-63.672,16.636c-4.813,2.708-6.519,8.806-3.811,13.619s8.806,6.521,13.619,3.811
			C218.484,76.864,237.11,72,255.997,72c60.654,0,110,49.346,110,110c0,16.574-3.591,32.499-10.673,47.332
			c-2.379,4.984-0.268,10.953,4.716,13.333c1.391,0.664,2.857,0.978,4.302,0.978c3.732,0,7.315-2.101,9.031-5.694
			c8.376-17.545,12.624-36.369,12.624-55.949C385.997,110.318,327.68,52,255.997,52z"/>
		<path d="M349.05,258.422c-3.963-3.846-10.294-3.751-14.14,0.212l-0.222,0.228c-3.858,3.951-3.783,10.283,0.168,14.141
			c1.945,1.899,4.466,2.845,6.985,2.845c2.599,0,5.197-1.007,7.156-3.014l0.264-0.271C353.108,268.6,353.013,262.269,349.05,258.422
			z"/>
		<path d="M322.586,282.345c-2.665-4.837-8.747-6.598-13.584-3.932C292.871,287.302,274.542,292,255.997,292
			c-60.654,0-110-49.346-110-110c0-15.889,3.311-31.213,9.84-45.546c2.29-5.026,0.071-10.956-4.955-13.246
			c-5.026-2.289-10.956-0.071-13.246,4.955c-7.724,16.954-11.64,35.067-11.64,53.837c0,71.682,58.318,130,130,130
			c21.911,0,43.578-5.557,62.658-16.071C323.491,293.263,325.252,287.182,322.586,282.345z"/>
		<path d="M174.999,92.899c-4.041-3.765-10.369-3.539-14.133,0.501l-0.222,0.239c-3.75,4.054-3.505,10.381,0.549,14.131
			c1.923,1.78,4.358,2.66,6.788,2.66c2.69,0,5.372-1.079,7.343-3.209l0.176-0.189C179.264,102.991,179.04,96.663,174.999,92.899z"/>
    </symbol>

    <symbol id="form-name" role="img" aria-labelledby="form-name_title" viewBox="0 0 512 512">
        <title id="form-name_title">Name</title>
    	<rect x="341.346" y="160.953" transform="matrix(-0.9662 0.2579 -0.2579 -0.9662 748.2239 255.7582)" width="31.984" height="32"/>
		<polygon points="141.872,480 47.248,480 166.72,32 302.112,32 313.04,72.896 343.952,64.656 326.72,0 142.112,0 5.584,512
			167.28,512 189.68,416 234.416,416 234.416,384 164.272,384 			"/>
		<rect x="324.843" y="99.152" transform="matrix(-0.9664 0.2572 -0.2572 -0.9664 699.8367 138.7653)" width="32" height="32"/>
		<polygon points="252.96,96 215.872,96 156.144,320 234.416,320 234.416,288 197.808,288 234.416,150.672 246.544,196.128
			277.44,187.872 			"/>
		<path d="M410.416,224h-144v96h128c8.837,0,16,7.163,16,16v16h-64c-44.183,0-80,35.817-80,80c0,44.183,35.817,80,80,80h160V320
			C506.363,267.003,463.413,224.053,410.416,224z M474.416,480h-128c-26.51,0-48-21.49-48-48c0-26.51,21.49-48,48-48h96v-48
			c0-26.51-21.49-48-48-48h-96v-32h112c35.346,0,64,28.654,64,64V480z"/>
		<rect x="346.416" y="416" width="96" height="32"/>
    </symbol>

    <symbol id="form-email" role="img" aria-labelledby="form-email_title" viewBox="0 0 512.027 512.027">
        <title id="form-email_title">Email</title>
    	<path d="M425.313,109.387l24.176-21.024c-7.465-8.578-15.482-16.659-24-24.192l-21.184,24
			C411.763,94.777,418.78,101.865,425.313,109.387z"/>
		<path d="M32.017,256.027c-0.01-123.712,100.27-224.008,223.982-224.018c44.395-0.004,87.789,13.185,124.674,37.89l17.84-26.56
			C281.049-35.349,122.036-3.915,43.348,113.549s-47.254,276.477,70.211,355.165c42.146,28.233,91.73,43.308,142.459,43.312h96v-32
			h-96C132.36,479.894,32.149,379.684,32.017,256.027z"/>
		<path d="M470.081,115.547l-26.752,17.6c24.006,36.48,36.764,79.21,36.688,122.88v40c0,30.928-25.072,56-56,56
			c-30.928,0-56-25.072-56-56v-40c0-70.576-50.256-128-112-128s-112,57.424-112,128s50.256,128,112,128
			c36.098-0.781,69.401-19.604,88.688-50.128c21.056,43.803,73.635,62.243,117.438,41.187
			c30.404-14.615,49.777-45.325,49.874-79.059v-40C512.102,206.103,497.52,157.254,470.081,115.547z M256.017,352.027
			c-44.112,0-80-43.056-80-96s35.888-96,80-96s80,43.056,80,96S300.129,352.027,256.017,352.027z"/>
		<rect x="384.017" y="480.027" width="32" height="32"/>
		<rect x="448.017" y="480.027" width="32" height="32"/>
    </symbol>

    <symbol id="form-phone" role="img" aria-labelledby="form-phone_title" viewBox="0 0 512.215 512.215">
        <title id="form-phone_title">Phone</title>
    	<path d="M85.409,110.988l-24.368-20.8c-7.372,8.663-14.166,17.803-20.336,27.36l26.896,17.376
			C73.003,126.562,78.952,118.566,85.409,110.988z"/>
		<path d="M129.697,71.116l-18.08-26.4c-9.386,6.435-18.344,13.474-26.816,21.072l21.424,23.808
			C113.633,82.926,121.474,76.752,129.697,71.116z"/>
		<path d="M437.342,75.196C389.271,27.069,324.023,0.051,256.001,0.108c-39.945-0.138-79.356,9.183-115.008,27.2l14.4,28.576
			c31.189-15.755,65.665-23.902,100.608-23.776C379.712,32,480.088,132.201,480.196,255.913
			C480.304,379.624,380.104,480,256.392,480.108c-53.99,0.047-106.181-19.408-146.967-54.784l29.776-29.84l20.656,20.624h91.104
			l165.04-165.04v-91.104l-70.4-70.48l-94.192,94.192l46.704,46.704l-67.76,67.76l-46.704-46.704l-94.272,94.272l27.2,27.2
			l-52.8,52.8l11.312,11.312c99.915,100.033,262.005,100.129,362.039,0.214S537.257,175.23,437.342,75.196z M183.569,296.684
			l46.704,46.704L343.281,230.38l-46.704-46.704l49.024-48.944l38.4,38.48v64.592L237.697,384.108h-64.592l-38.48-38.4
			L183.569,296.684z"/>
		<path d="M53.105,161.068l0.048-0.064l-28.944-13.6c-35.232,75.131-31.844,162.681,9.088,234.864l27.808-15.76
			C25.313,303.368,22.331,226.8,53.105,161.068z"/>
    </symbol>

    <symbol id="form-message" role="img" aria-labelledby="form-message_title" viewBox="0 0 504.375 504.375">
        <title id="form-message_title">Message</title>
    	<path d="M412.332,107.239l24.64-20.4c-7.294-8.803-15.208-17.075-23.68-24.752l-21.488,23.776
			C399.142,92.495,406.002,99.638,412.332,107.239z"/>
		<path d="M443.292,157.799l29.392-12.656c-4.539-10.491-9.81-20.65-15.776-30.4l-27.296,16.704
			C434.791,139.895,439.363,148.701,443.292,157.799z"/>
		<path d="M483.948,177.527l-30.896,8.304c29.815,111.067-36.053,225.274-147.12,255.088c-17.533,4.707-35.606,7.1-53.76,7.12
			c-31.242-0.006-62.073-7.119-90.16-20.8l-5.936-2.864l-90.928,31.328l19.584-92.192l-3.904-5.68
			C15.804,263.13,39.862,133.648,134.563,68.624c70.356-48.308,163.081-48.736,233.88-1.081l17.904-26.528
			C276.438-33.072,127.279-4.032,53.192,105.878c-53.686,79.645-54.717,183.627-2.62,264.32l-28.48,134.176l132.08-45.472
			c30.788,13.948,64.201,21.154,98,21.136c132.654-0.105,240.107-107.728,240.002-240.382
			C492.157,218.676,489.391,197.788,483.948,177.527z"/>
		<polygon points="288.172,253.415 216.172,181.415 120.86,276.727 143.484,299.351 216.172,226.663 288.172,298.663
			383.484,203.351 360.86,180.727 			"/>
    </symbol>

    <symbol id="form-activity" role="img" aria-labelledby="form-activity_title" viewBox="0 0 512.046 512.046">
        <title id="form-activity_title">Type of Activity</title>
    	<path d="M423.135,56.798c-8.302-8.101-17.29-15.467-26.864-22.016l-18.064,26.432c8.053,5.492,15.607,11.681,22.576,18.496
			L423.135,56.798z"/>
		<path d="M115.567,336.046H74.655l40.912-109.088v-26.912c0.055-92.837,75.359-168.051,168.196-167.996
			c23.806,0.014,47.337,5.085,69.036,14.876l13.184-29.168c-100.738-45.455-219.252-0.639-264.707,100.099
			c-11.656,25.833-17.693,53.848-17.709,82.189v21.088L28.479,368.046h55.088v80h80v64h32v-96h-80V336.046z"/>
		<path d="M475.983,145.358l-30.816,8.72c4.226,14.958,6.379,30.425,6.4,45.968c0.006,63.17-22.924,124.194-64.528,171.728
			l-47.472,54.256v86.016h32v-73.984l39.568-45.216c46.703-53.37,72.442-121.881,72.432-192.8
			C483.57,181.555,481.018,163.151,475.983,145.358z"/>
		<path d="M434.831,126.83l28.8-13.968c-5.052-10.435-11.006-20.408-17.792-29.808l-25.952,18.752
			C425.575,109.705,430.575,118.077,434.831,126.83z"/>
		<rect x="275.567" y="336.046" width="32" height="32"/>
		<path d="M387.567,168.046c0-48.601-39.399-88-88-88s-88,39.399-88,88v8h32v-8c0-30.928,25.072-56,56-56c30.928,0,56,25.072,56,56
			c0.06,17.636-10.689,33.509-27.088,40l-12.672,5.072c-24.358,9.648-40.324,33.225-40.24,59.424v31.504h32v-31.504
			c-0.05-13.1,7.941-24.89,20.128-29.696l12.672-5.088C368.946,226.446,387.677,198.782,387.567,168.046z"/>
    </symbol>

    <symbol id="footer-facebook" role="img" aria-labelledby="footer-facebook_title" viewBox="0 0 512 512">
        <title id="footer-facebook_title">Facebook</title>
        <path d="M296.296,512H200.36V256h-64v-88.225l64-0.029l-0.104-51.976C200.256,43.794,219.773,0,304.556,0h70.588v88.242h-44.115
		c-33.016,0-34.604,12.328-34.604,35.342l-0.131,44.162h79.346l-9.354,88.225L296.36,256L296.296,512z"/>
    </symbol>

    <symbol id="footer-twitter" role="img" aria-labelledby="footer-twitter_title" viewBox="0 0 512.002 512.002">
        <title id="footer-twitter_title">Twitter</title>
        <path d="M512.002,97.211c-18.84,8.354-39.082,14.001-60.33,16.54c21.686-13,38.342-33.585,46.186-58.115
		c-20.299,12.039-42.777,20.78-66.705,25.49c-19.16-20.415-46.461-33.17-76.674-33.17c-58.011,0-105.042,47.029-105.042,105.039
		c0,8.233,0.929,16.25,2.72,23.939c-87.3-4.382-164.701-46.2-216.509-109.753c-9.042,15.514-14.223,33.558-14.223,52.809
		c0,36.444,18.544,68.596,46.73,87.433c-17.219-0.546-33.416-5.271-47.577-13.139c-0.01,0.438-0.01,0.878-0.01,1.321
		c0,50.894,36.209,93.348,84.261,103c-8.813,2.399-18.094,3.687-27.674,3.687c-6.769,0-13.349-0.66-19.764-1.888
		c13.368,41.73,52.16,72.104,98.126,72.949c-35.95,28.176-81.243,44.967-130.458,44.967c-8.479,0-16.84-0.496-25.058-1.471
		c46.486,29.807,101.701,47.197,161.021,47.197c193.211,0,298.868-160.062,298.868-298.872c0-4.554-0.104-9.084-0.305-13.59
		C480.111,136.775,497.92,118.275,512.002,97.211z"/>
    </symbol>

    <symbol id="footer-instagram" role="img" aria-labelledby="footer-instagram_title" viewBox="0 0 97.395 97.395">
        <title id="footer-instagram_title">Instagram</title>
        <path d="M12.501,0h72.393c6.875,0,12.5,5.09,12.5,12.5v72.395c0,7.41-5.625,12.5-12.5,12.5H12.501C5.624,97.395,0,92.305,0,84.895
		V12.5C0,5.09,5.624,0,12.501,0L12.501,0z M70.948,10.821c-2.412,0-4.383,1.972-4.383,4.385v10.495c0,2.412,1.971,4.385,4.383,4.385
		h11.008c2.412,0,4.385-1.973,4.385-4.385V15.206c0-2.413-1.973-4.385-4.385-4.385H70.948L70.948,10.821z M86.387,41.188h-8.572
		c0.811,2.648,1.25,5.453,1.25,8.355c0,16.2-13.556,29.332-30.275,29.332c-16.718,0-30.272-13.132-30.272-29.332
		c0-2.904,0.438-5.708,1.25-8.355h-8.945v41.141c0,2.129,1.742,3.872,3.872,3.872h67.822c2.13,0,3.872-1.742,3.872-3.872V41.188
		H86.387z M48.789,29.533c-10.802,0-19.56,8.485-19.56,18.953c0,10.468,8.758,18.953,19.56,18.953
		c10.803,0,19.562-8.485,19.562-18.953C68.351,38.018,59.593,29.533,48.789,29.533z"/>
    </symbol>

    <symbol id="footer-linkedin" role="img" aria-labelledby="footer-linkedin_title" viewBox="0 0 93.06 93.06">
        <title id="footer-linkedin_title">Linkedin</title>
        <path d="M11.185,0.08C5.004,0.08,0.001,5.092,0,11.259c0,6.173,5.003,11.184,11.186,11.184c6.166,0,11.176-5.011,11.176-11.184
			C22.362,5.091,17.351,0.08,11.185,0.08z"/>
		<rect x="1.538" y="30.926" width="19.287" height="62.054"/>
		<path d="M69.925,29.383c-9.382,0-15.673,5.144-18.248,10.022h-0.258v-8.479H32.921H32.92v62.053h19.27V62.281
			c0-8.093,1.541-15.932,11.575-15.932c9.89,0,10.022,9.256,10.022,16.451v30.178H93.06V58.942
			C93.06,42.235,89.455,29.383,69.925,29.383z"/>
    </symbol>

    <symbol id="footer-google" role="img" aria-labelledby="footer-google_title" viewBox="0 90 320 320">
        <title id="footer-google_title">Google</title>
		<path d="M160,224v64h90.528c-13.216,37.248-48.8,64-90.528,64c-52.928,0-96-43.072-96-96c0-52.928,43.072-96,96-96
			c22.944,0,45.024,8.224,62.176,23.168l42.048-48.256C235.424,109.824,198.432,96,160,96C71.776,96,0,167.776,0,256
			s71.776,160,160,160s160-71.776,160-160v-32H160z"/>
    </symbol>

    <symbol id="footer-youtube" role="img" aria-labelledby="footer-youtube_title" viewBox="0 0 510 510">
      <title id="footer-youtube_title">Youtube</title>
	    <path d="M459,61.2C443.7,56.1,349.35,51,255,51c-94.35,0-188.7,5.1-204,10.2C10.2,73.95,0,163.2,0,255s10.2,181.05,51,193.8
		  C66.3,453.9,160.65,459,255,459c94.35,0,188.7-5.1,204-10.2c40.8-12.75,51-102,51-193.8S499.8,73.95,459,61.2z M204,369.75v-229.5
  		L357,255L204,369.75z"/>
    </symbol>

    <symbol id="footer-vimeo" role="img" aria-labelledby="footer-vimeo_title" viewBox="0 0 430.118 430.118">
      <title id="footer-vimeo_title">Vimeo</title>
	    <path d="M367.243,28.754c-59.795-1.951-100.259,31.591-121.447,100.664c10.912-4.494,21.516-6.762,31.858-6.762
	c21.804,0,31.455,12.237,28.879,36.776c-1.278,14.86-10.911,36.482-28.879,64.858c-18.039,28.423-31.513,42.61-40.464,42.61
	c-11.621,0-22.199-21.958-31.857-65.82c-3.239-12.918-9.031-45.812-17.324-98.765c-7.775-49.046-28.32-71.962-61.727-68.741
	C112.15,34.873,90.98,47.815,62.726,72.308C42.113,91.032,21.228,109.761,0,128.471l20.225,26.112
	c19.303-13.562,30.595-20.311,33.731-20.311c14.802,0,28.625,23.219,41.488,69.651c11.53,42.644,23.158,85.23,34.744,127.812
	c17.256,46.466,38.529,69.708,63.552,69.708c40.473,0,90.028-38.065,148.469-114.223c56.537-72.909,85.725-130.352,87.694-172.341
	C432.498,58.764,411.613,30.028,367.243,28.754z"/>
    </symbol>

    <symbol id="footer-phone" role="img" aria-labelledby="footer-phone_title" viewBox="0 0 504.375 504.375">
        <title id="footer-phone_title"></title>
        <path d="M443.292,157.799l29.392-12.656c-4.539-10.491-9.81-20.65-15.776-30.4l-27.296,16.704
			C434.791,139.895,439.363,148.701,443.292,157.799z"/>
		<path d="M412.332,107.239l24.64-20.4c-7.294-8.803-15.208-17.075-23.68-24.752l-21.488,23.776
			C399.142,92.495,406.002,99.638,412.332,107.239z"/>
		<path d="M483.948,177.527l-30.896,8.304c29.815,111.067-36.053,225.274-147.12,255.088c-17.533,4.707-35.606,7.1-53.76,7.12
			c-31.242-0.006-62.073-7.119-90.16-20.8l-5.936-2.864l-90.928,31.328l19.584-92.192l-3.904-5.68
			C15.804,263.13,39.862,133.648,134.563,68.624c70.356-48.308,163.081-48.736,233.88-1.081l17.904-26.528
			C276.438-33.072,127.279-4.032,53.192,105.878c-53.686,79.645-54.717,183.627-2.62,264.32l-28.48,134.176l132.08-45.472
			c30.788,13.948,64.201,21.154,98,21.136c132.654-0.105,240.107-107.728,240.002-240.382
			C492.157,218.676,489.391,197.788,483.948,177.527z"/>
		<path d="M256.06,168.279l-79.2-79.2l-45.264,45.264c-31.188,31.264-31.188,81.872,0,113.136l113.152,113.12
			c31.24,31.231,81.88,31.231,113.12,0l45.28-45.248l-79.216-79.184l-22.624,22.624c-6.248,6.246-16.376,6.246-22.624,0
			l-45.264-45.264c-6.246-6.248-6.246-16.376,0-22.624L256.06,168.279z M256.06,281.415c18.744,18.738,49.128,18.738,67.872,0
			l33.936,33.936l-22.624,22.624c-18.993,18.127-48.879,18.127-67.872,0L154.22,224.855c-18.705-18.764-18.705-49.124,0-67.888
			l22.64-22.624l33.936,33.936c-18.738,18.744-18.738,49.128,0,67.872L256.06,281.415z"/>
    </symbol>

	<symbol id="footer-mail" role="img" aria-labelledby="footer-mail_title" viewBox="0 0 512 512">
        <title id="footer-mail_title"></title>
        <path d="M368,34.072v32h75.2L256,190.872L68.8,66.072H208v-32H0v320h112v123.856l212.336-123.856H512v-320H368z M32,79.96
			l125.504,83.712L32,297.592V79.96z M315.664,322.072L144,422.216V322.072H52.912L184.48,181.624L256,229.272l71.52-47.68
			l131.568,140.48H315.664z M480,297.592l-125.504-133.92L480,79.96V297.592z"/>
		<rect x="304" y="34.072" width="32" height="32"/>
		<rect x="240" y="34.072" width="32" height="32"/>
    </symbol>

    <symbol id="footer-location" role="img" aria-labelledby="footer-location_title" viewBox="0 0 496.261 496.261">
        <title id="footer-location_title"></title>
        <path d="M248.118,79.989c-61.856,0-112,50.144-112,112s50.144,112,112,112s112-50.144,112-112
			C360.047,130.162,309.944,80.059,248.118,79.989z M248.118,271.989c-44.183,0-80-35.817-80-80s35.817-80,80-80s80,35.817,80,80
			C328.065,236.15,292.279,271.936,248.118,271.989z"/>
		<path d="M404.47,157.861l31.296-6.768c-2.479-11.382-5.987-22.516-10.48-33.264l-29.52,12.368
			C399.515,139.129,402.429,148.39,404.47,157.861z"/>
		<path d="M440.006,185.669l-32,1.024c0,1.76,0,3.536,0,5.296c-0.064,66.875-41.689,126.664-104.384,149.936l-5.488,2.016
			l-50.016,87.776l-50.128-87.728l-5.488-2.016c-82.839-30.76-125.057-122.85-94.297-205.689s122.85-125.057,205.689-94.297
			c13.691,5.084,26.622,12.018,38.432,20.61l18.832-25.808C275.429-25.62,155.341-6.716,92.932,79.012
			s-43.505,205.817,42.224,268.226c12.618,9.186,26.309,16.799,40.771,22.671l72.192,126.352l72.192-126.4
			c72.367-29.44,119.722-99.746,119.808-177.872C440.118,189.877,440.118,187.765,440.006,185.669z"/>
		<path d="M408.966,87.029c-6.389-9.73-13.634-18.87-21.648-27.312l-23.184,22.032c6.691,7.04,12.732,14.671,18.048,22.8
			L408.966,87.029z"/>
    </symbol>

    <symbol id="footer-location" role="img" aria-labelledby="footer-location_title" viewBox="0 0 496.261 496.261">
        <title id="footer-location_title"></title>
        <path d="M248.118,79.989c-61.856,0-112,50.144-112,112s50.144,112,112,112s112-50.144,112-112
			C360.047,130.162,309.944,80.059,248.118,79.989z M248.118,271.989c-44.183,0-80-35.817-80-80s35.817-80,80-80s80,35.817,80,80
			C328.065,236.15,292.279,271.936,248.118,271.989z"/>
		<path d="M404.47,157.861l31.296-6.768c-2.479-11.382-5.987-22.516-10.48-33.264l-29.52,12.368
			C399.515,139.129,402.429,148.39,404.47,157.861z"/>
		<path d="M440.006,185.669l-32,1.024c0,1.76,0,3.536,0,5.296c-0.064,66.875-41.689,126.664-104.384,149.936l-5.488,2.016
			l-50.016,87.776l-50.128-87.728l-5.488-2.016c-82.839-30.76-125.057-122.85-94.297-205.689s122.85-125.057,205.689-94.297
			c13.691,5.084,26.622,12.018,38.432,20.61l18.832-25.808C275.429-25.62,155.341-6.716,92.932,79.012
			s-43.505,205.817,42.224,268.226c12.618,9.186,26.309,16.799,40.771,22.671l72.192,126.352l72.192-126.4
			c72.367-29.44,119.722-99.746,119.808-177.872C440.118,189.877,440.118,187.765,440.006,185.669z"/>
		<path d="M408.966,87.029c-6.389-9.73-13.634-18.87-21.648-27.312l-23.184,22.032c6.691,7.04,12.732,14.671,18.048,22.8
			L408.966,87.029z"/>
    </symbol>

</svg>
