<svg width="100" height="100" viewBox="0 0 100 100" fill="none" xmlns="http://www.w3.org/2000/svg">
<path d="M18 21C12.4946 21 8 25.4946 8 31V69.0001C8 74.5055 12.4946 79.0001 18 79.0001H82C87.5054 79.0001 92 74.5055 92 69.0001V31C92 25.4946 87.5054 21 82 21H18ZM18 25H82C83.1773 25 84.2693 25.3088 85.1875 25.875L51.625 57.4062C50.8513 58.1328 49.1488 58.1328 48.375 57.4062L14.8125 25.875C15.7307 25.3088 16.8227 25 18 25ZM12.3438 29.0313L45.625 60.3125C48.0724 62.6106 51.9275 62.6107 54.375 60.3125L87.6562 29.0313C87.8639 29.6459 88 30.3077 88 31V69.0001C88 72.3587 85.3586 75.0001 82 75.0001H18C14.6414 75.0001 12 72.3587 12 69.0001V31C12 30.3077 12.1361 29.6459 12.3438 29.0313Z" fill="#2C608A"/>
</svg>
