<svg width="76" height="56" viewBox="0 0 76 56" fill="none" xmlns="http://www.w3.org/2000/svg">
<g id="noun_Right Arrow_3129558">
<g id="Shape">
<path fill-rule="evenodd" clip-rule="evenodd" d="M49.1673 2.76593L71.8166 23.2103C73.2098 24.438 74.0028 26.179 74 28.0039C73.9971 29.8287 73.1987 31.5674 71.8016 32.791L49.1643 53.2238C47.9306 54.3601 46.2948 54.9957 44.5927 55C43.6597 54.9985 42.737 54.8103 41.8825 54.4472C39.4009 53.4252 37.8003 51.0537 37.8288 48.4407V41.1774H25.9588C21.5652 41.1728 18.0047 37.7223 18 33.4645V22.523C18.0047 18.2651 21.5651 14.8144 25.9588 14.8095H37.8288V7.54611C37.8199 4.94125 39.4108 2.5809 41.8756 1.54177C44.3404 0.502638 47.2068 0.983864 49.1673 2.76593ZM47.0665 51.0461L69.7211 30.5973C70.4847 29.9382 70.9227 28.9954 70.9257 28.0044C70.9287 27.0135 70.4964 26.0682 69.7369 25.4048L47.0688 4.94359C46.0091 3.96388 44.4449 3.69894 43.1051 4.27223C41.7467 4.82137 40.8732 6.11996 40.903 7.54605V16.299C40.903 17.1217 40.2148 17.7886 39.3659 17.7887H25.9588C23.2622 17.7917 21.077 19.9097 21.0743 22.523V33.4645C21.0773 36.0776 23.2624 38.1952 25.9588 38.1981H39.3659C39.7736 38.198 40.1646 38.3549 40.4529 38.6343C40.7412 38.9137 40.9031 39.2927 40.903 39.6878V48.4407C40.8946 49.8583 41.7583 51.1445 43.0991 51.7112C44.4398 52.278 46.0001 52.0164 47.0665 51.0461Z" fill="#F2994A"/>
<path d="M71.8166 23.2103L71.1465 23.9527L71.1555 23.9606L71.8166 23.2103ZM49.1673 2.76593L48.4947 3.50591L48.4973 3.50825L49.1673 2.76593ZM71.8016 32.791L71.1427 32.0387L71.1316 32.0487L71.8016 32.791ZM49.1643 53.2238L48.4942 52.4814L48.4868 52.4883L49.1643 53.2238ZM44.5927 55L44.5911 56L44.5953 56L44.5927 55ZM41.8825 54.4472L42.2736 53.5268L42.2633 53.5226L41.8825 54.4472ZM37.8288 48.4407L38.8288 48.4516V48.4407H37.8288ZM37.8288 41.1774H38.8288V40.1774H37.8288V41.1774ZM25.9588 41.1774L25.9578 42.1774H25.9588V41.1774ZM18 33.4645H17L17 33.4656L18 33.4645ZM18 22.523L17 22.5219V22.523H18ZM25.9588 14.8095V13.8095L25.9577 13.8095L25.9588 14.8095ZM37.8288 14.8095V15.8095H38.8288V14.8095H37.8288ZM37.8288 7.54611H38.8288L38.8288 7.54272L37.8288 7.54611ZM41.8756 1.54177L41.4871 0.620312L41.8756 1.54177ZM69.7211 30.5973L69.0675 29.8402L69.0511 29.855L69.7211 30.5973ZM47.0665 51.0461L46.3965 50.3038L46.3935 50.3064L47.0665 51.0461ZM70.9257 28.0044L69.9257 28.0014V28.0014L70.9257 28.0044ZM69.7369 25.4048L69.0667 26.1472L69.079 26.1579L69.7369 25.4048ZM47.0688 4.94359L46.3899 5.67791L46.3987 5.68591L47.0688 4.94359ZM43.1051 4.27223L43.48 5.19954L43.4985 5.1916L43.1051 4.27223ZM40.903 7.54605H41.9032L41.9028 7.52515L40.903 7.54605ZM40.903 16.299L41.903 16.2991V16.299H40.903ZM39.3659 17.7887V18.7887H39.3659L39.3659 17.7887ZM25.9588 17.7887V16.7886L25.9577 16.7887L25.9588 17.7887ZM21.0743 22.523L20.0743 22.5219V22.523H21.0743ZM21.0743 33.4645H20.0742L20.0743 33.4657L21.0743 33.4645ZM25.9588 38.1981L25.9577 39.1981H25.9588V38.1981ZM39.3659 38.1981V39.1981H39.3661L39.3659 38.1981ZM40.903 39.6878L39.903 39.6875V39.6878H40.903ZM40.903 48.4407L41.903 48.4466V48.4407H40.903ZM43.0991 51.7112L43.4884 50.7901L43.0991 51.7112ZM72.4867 22.468L49.8374 2.02362L48.4973 3.50825L71.1466 23.9526L72.4867 22.468ZM75 28.0055C75.0033 25.8872 74.0825 23.8741 72.4778 22.4601L71.1555 23.9606C72.3372 25.0019 73.0024 26.4709 73 28.0023L75 28.0055ZM72.4605 33.5433C74.0695 32.134 74.9967 30.1237 75 28.0055L73 28.0023C72.9976 29.5337 72.3278 31.0008 71.1428 32.0387L72.4605 33.5433ZM49.8343 53.9661L72.4717 33.5333L71.1316 32.0487L48.4943 52.4815L49.8343 53.9661ZM44.5953 56C46.5434 55.995 48.4211 55.2679 49.8418 53.9594L48.4868 52.4883C47.4401 53.4524 46.0462 53.9963 44.5902 54L44.5953 56ZM41.4914 55.3676C42.4697 55.7833 43.5249 55.9983 44.5911 56L44.5943 54C43.7944 53.9987 43.0043 53.8374 42.2736 53.5269L41.4914 55.3676ZM36.8288 48.4299C36.7958 51.4664 38.6553 54.1997 41.5017 55.3719L42.2633 53.5226C40.1465 52.6508 38.8049 50.6409 38.8287 48.4516L36.8288 48.4299ZM36.8288 41.1774V48.4407H38.8288V41.1774H36.8288ZM25.9588 42.1774H37.8288V40.1774H25.9588V42.1774ZM17 33.4656C17.0054 38.3041 21.0425 42.1722 25.9578 42.1774L25.9599 40.1774C22.088 40.1733 19.0041 37.1405 19 33.4634L17 33.4656ZM17 22.523V33.4645H19V22.523H17ZM25.9577 13.8095C21.0423 13.815 17.0054 17.6833 17 22.5219L19 22.5241C19.0041 18.8469 22.0879 15.8138 25.9599 15.8095L25.9577 13.8095ZM37.8288 13.8095H25.9588V15.8095H37.8288V13.8095ZM36.8288 7.54611V14.8095H38.8288V7.54611H36.8288ZM41.4871 0.620312C38.6637 1.81063 36.8185 4.52717 36.8288 7.5495L38.8288 7.54272C38.8213 5.35533 40.1578 3.35118 42.264 2.46323L41.4871 0.620312ZM49.8399 2.02596C47.5877 -0.02132 44.3063 -0.568229 41.4871 0.620312L42.264 2.46323C44.3745 1.5735 46.8259 1.98905 48.4947 3.50591L49.8399 2.02596ZM69.0511 29.855L46.3965 50.3038L47.7366 51.7884L70.3912 31.3397L69.0511 29.855ZM69.9257 28.0014C69.9236 28.6968 69.6165 29.3666 69.0677 29.8403L70.3745 31.3543C71.3529 30.5099 71.9218 29.294 71.9257 28.0075L69.9257 28.0014ZM69.079 26.1579C69.6248 26.6346 69.9278 27.3061 69.9257 28.0014L71.9257 28.0075C71.9296 26.721 71.368 25.5017 70.3947 24.6516L69.079 26.1579ZM46.3987 5.68591L69.0668 26.1471L70.4069 24.6624L47.7388 4.20127L46.3987 5.68591ZM43.4985 5.1916C44.4803 4.77151 45.6235 4.96932 46.3899 5.67786L47.7476 4.20931C46.3946 2.95844 44.4095 2.62637 42.7117 3.35286L43.4985 5.1916ZM41.9028 7.52515C41.882 6.52906 42.4924 5.59853 43.4799 5.19935L42.7304 3.34512C41.001 4.0442 39.8644 5.71085 39.9032 7.56695L41.9028 7.52515ZM41.903 16.299V7.54605H39.903V16.299H41.903ZM39.3659 18.7887C40.7373 18.7886 41.9029 17.7034 41.903 16.2991L39.903 16.299C39.903 16.5401 39.6923 16.7886 39.3658 16.7887L39.3659 18.7887ZM25.9588 18.7887H39.3659V16.7887H25.9588V18.7887ZM22.0742 22.524C22.0764 20.4914 23.785 18.7911 25.96 18.7887L25.9577 16.7887C22.7393 16.7923 20.0776 19.3279 20.0743 22.5219L22.0742 22.524ZM22.0743 33.4645V22.523H20.0743V33.4645H22.0743ZM25.9599 37.1981C23.7852 37.1958 22.0766 35.4958 22.0742 33.4634L20.0743 33.4657C20.078 36.6594 22.7396 39.1946 25.9577 39.1981L25.9599 37.1981ZM39.3659 37.1981H25.9588V39.1981H39.3659V37.1981ZM41.1488 37.9162C40.6707 37.4529 40.0287 37.198 39.3656 37.1981L39.3661 39.1981C39.5185 39.1981 39.6585 39.257 39.757 39.3524L41.1488 37.9162ZM41.903 39.688C41.9032 39.0173 41.628 38.3806 41.1488 37.9162L39.757 39.3524C39.8544 39.4468 39.903 39.568 39.903 39.6875L41.903 39.688ZM41.903 48.4407V39.6878H39.903V48.4407H41.903ZM43.4884 50.7901C42.5066 50.3751 41.8971 49.4461 41.903 48.4466L39.903 48.4348C39.8922 50.2704 41.01 51.9138 42.7097 52.6323L43.4884 50.7901ZM46.3935 50.3064C45.6191 51.011 44.4745 51.2069 43.4884 50.7901L42.7097 52.6323C44.4052 53.349 46.3811 53.0218 47.7395 51.7857L46.3935 50.3064Z" fill="#F2994A"/>
</g>
<path id="Path" d="M12 15C10.8954 15 10 15.6963 10 16.5553V41.4447C10 42.3037 10.8954 43 12 43C13.1046 43 14 42.3037 14 41.4447V16.5553C13.9999 15.6963 13.1045 15 12 15Z" fill="#F2994A" stroke="#F2994A"/>
<path id="Path_2" d="M4 15C2.89545 15 2.00006 15.6963 2 16.5553V41.4447C2 42.3037 2.89543 43 4 43C5.10457 43 6 42.3037 6 41.4447V16.5553C6 15.6963 5.10457 15 4 15Z" fill="#F2994A" stroke="#F2994A"/>
</g>
</svg>
