<?xml version="1.0" encoding="UTF-8"?>
<svg width="36px" height="28px" viewBox="0 0 36 28" version="1.1" xmlns="http://www.w3.org/2000/svg" xmlns:xlink="http://www.w3.org/1999/xlink">
    <!-- Generator: sketchtool 63.1 (101010) - https://sketch.com -->
    <title>C86016B4-38DE-4113-A26F-9FD180E33690</title>
    <desc>Created with sketchtool.</desc>
    <g id="Layouts" stroke="none" stroke-width="1" fill="none" fill-rule="evenodd">
        <g id="1.0-Challenge—Listing-Page_Desktop-HD-v8" transform="translate(-1112.000000, -258.000000)" fill="#FFFFFF" fill-rule="nonzero">
            <g id="noun_Right-Arrow_3129558-Copy" transform="translate(1112.000000, 258.000000)">
                <path d="M34.908323,11.6051653 L23.5836526,1.38296666 C22.6034081,0.49193213 21.170193,0.251318955 19.937785,0.770885613 C18.705377,1.29045227 17.9099633,2.47062539 17.9143811,3.77305537 L17.9143811,7.40473893 L11.9794098,7.40473893 C9.78256155,7.4072101 8.00235482,9.13254759 8,11.261496 L8,16.7322668 C8.00236786,18.8611557 9.78262276,20.5863899 11.9794098,20.5886887 L17.9143811,20.5886887 L17.9143811,24.2203723 C17.9001626,25.5268274 18.7004379,26.7126098 19.9412421,27.2236092 C20.3684921,27.4051745 20.8298328,27.4992701 21.2963564,27.5 C22.1473856,27.4978367 22.9652793,27.1800629 23.5821539,26.6119059 L34.9008142,16.3955019 C35.5993355,15.7837183 35.9985621,14.9143679 36,14.0019462 C36.0014225,13.0895244 35.6049232,12.2190026 34.908323,11.6051653 L34.908323,11.6051653 Z M33.8605569,15.2986679 L22.533258,25.5230414 C22.0000578,26.0082007 21.2199239,26.138989 20.5495297,25.8556106 C19.8791356,25.5722322 19.4473197,24.9291478 19.4515063,24.2203723 L19.4515063,19.8438808 C19.4515594,19.6463297 19.3706031,19.456855 19.2264581,19.3171653 C19.0823132,19.1774755 18.8867954,19.0990214 18.6829437,19.0990728 L11.9794098,19.0990728 C10.6312059,19.097587 9.53865425,18.0388005 9.53712526,16.7322668 L9.53712526,11.261496 C9.53849324,9.95483845 10.6310783,8.89585631 11.9794098,8.89432503 L18.6829437,8.89432503 C19.1074003,8.89430447 19.4514851,8.56085463 19.4515063,8.14951708 L19.4515063,3.77302557 C19.4366024,3.05997814 19.8733475,2.41068277 20.5525645,2.13611646 C21.222453,1.8494709 22.0045446,1.9819401 22.5343878,2.47179395 L33.8684347,12.7023791 C34.2482122,13.0340918 34.4643676,13.5067613 34.462872,14.0022249 C34.4613609,14.4976884 34.2423408,14.9691179 33.8605569,15.2986605 L33.8605569,15.2986679 Z" id="Shape"></path>
                <path d="M5,7.5 C4.44771525,7.5 4,7.84815605 4,8.2776283 L4,20.7223717 C4,21.151844 4.44771525,21.5 5,21.5 C5.55228475,21.5 6,21.151844 6,20.7223717 L6,8.2776283 C5.99997239,7.84816494 5.55227331,7.5 5,7.5 L5,7.5 Z" id="Path"></path>
                <path d="M1,7.5 C0.447726688,7.5 2.76115948e-05,7.84816494 0,8.2776283 L0,20.7223717 C0,21.151844 0.44771525,21.5 1,21.5 C1.55228475,21.5 2,21.151844 2,20.7223717 L2,8.2776283 C2,7.84815605 1.55228475,7.5 1,7.5 Z" id="Path"></path>
            </g>
        </g>
    </g>
</svg>