<?xml version="1.0" encoding="UTF-8"?>
<svg width="55px" height="72px" viewBox="0 0 55 72" version="1.1" xmlns="http://www.w3.org/2000/svg" xmlns:xlink="http://www.w3.org/1999/xlink">
    <!-- Generator: sketchtool 63.1 (101010) - https://sketch.com -->
    <title>3CED9030-C0B4-42F7-9F70-6CFDC4132178</title>
    <desc>Created with sketchtool.</desc>
    <g id="Layouts" stroke="none" stroke-width="1" fill="none" fill-rule="evenodd">
        <g id="1.0-Challenge—Listing-Page_Desktop-HD-v8" transform="translate(-694.000000, -4072.000000)" stroke="#2C608A" stroke-width="2">
            <g id="Group-8" transform="translate(530.000000, 4004.000000)">
                <g id="Group-13" transform="translate(165.000000, 69.000000)">
                    <path d="M0.3424,48.8381658 L0.3424,3 C0.3424,1.34314575 1.68554575,-1.39730022e-16 3.3424,0 L49.7292,0 C51.3860542,-7.48448398e-16 52.7292,1.34314575 52.7292,3 L52.7292,48.8381658 C52.7292,50.4950201 51.3860542,51.8381658 49.7292,51.8381658 L41.0047207,51.8381658 C39.9731936,51.8381658 39.0140104,52.3681212 38.4649726,53.2413941 L29.228167,67.9330117 C28.3462943,69.3356758 26.4943113,69.7578607 25.0916472,68.875988 C24.7053418,68.6331129 24.3795307,68.3053147 24.1390089,67.9175396 L15.0455645,53.2568662 C14.4984273,52.3747581 13.5341689,51.8381658 12.4961545,51.8381658 L3.3424,51.8381658 C1.68554575,51.8381658 0.3424,50.4950201 0.3424,48.8381658 Z" id="Path-3"></path>
                    <g id="noun_Star-pin_510236" fill-rule="nonzero">
                        <polygon id="Path" points="31.3448 28.352 34.4016 37.7584 26.4 31.9464 18.3984 37.7584 21.4552 28.352 13.4528 22.5392 23.3432 22.5392 26.4 13.1328 29.4568 22.5392 39.3472 22.5392"></polygon>
                    </g>
                </g>
            </g>
        </g>
    </g>
</svg>