<?xml version="1.0" encoding="UTF-8"?>
<svg width="68px" height="68px" viewBox="0 0 68 68" version="1.1" xmlns="http://www.w3.org/2000/svg" xmlns:xlink="http://www.w3.org/1999/xlink">
    <!-- Generator: sketchtool 63.1 (101010) - https://sketch.com -->
    <title>A1DB2059-1D54-475F-9101-C70D77B043E8</title>
    <desc>Created with sketchtool.</desc>
    <g id="Layouts" stroke="none" stroke-width="1" fill="none" fill-rule="evenodd">
        <g id="1.0-Challenge—Listing-Page_Desktop-HD-v8" transform="translate(-282.000000, -4072.000000)" fill="#2C608A" fill-rule="nonzero">
            <g id="Group-9" transform="translate(159.000000, 4072.000000)">
                <g id="noun_tools_3106515" transform="translate(123.000000, 0.000000)">
                    <path d="M59.9403982,16.2146982 C60.5273658,16.1045143 61.0413814,15.7535887 61.3577524,15.2470507 L67.6816164,5.11197556 C68.1987135,4.28923037 68.0761027,3.21790435 67.3864889,2.53326444 L65.4673778,0.614198667 C64.7829108,-0.0762952569 63.7108465,-0.199110642 62.8879564,0.318700889 L52.7521787,6.64258 C52.2465718,6.95892265 51.8960607,7.47205587 51.7852716,8.05809067 L51.2916671,10.68178 L35.7489147,26.2245324 L28.6722982,19.1479084 L28.6721547,19.1480444 L26.9723587,17.4483391 C28.1440258,13.2637962 27.2672113,8.77163656 24.6079527,5.33484341 C21.9486942,1.89805026 17.8204445,-0.0782736757 13.4757716,0.00551555556 C12.1607636,0.0301336724 10.9876676,0.837997096 10.4957093,2.05776311 C10.0046757,3.25602033 10.2891933,4.63234714 11.2150889,5.53769333 L14.9776044,9.30021644 C16.5824462,10.8462033 16.6883761,13.3807047 15.2181356,15.0552151 C14.474549,15.8485842 13.4406704,16.3059932 12.3534358,16.3226168 C11.2662012,16.3392404 10.2188218,15.9136534 9.45132756,15.1433884 L5.53017556,11.2222667 C4.60560921,10.2994962 3.21918896,10.0183487 2.00819111,10.5080551 C0.821058384,10.9659974 0.0294190022,12.0971669 0.00574222222,13.369344 C-0.129663958,17.6793165 1.77794172,21.8001771 5.15167244,24.4857196 C8.61360881,27.2333807 13.180695,28.1599677 17.4397333,26.9787658 L19.1404133,28.6794458 L26.2172187,35.7562511 L23.8735307,38.0999391 L21.6121076,35.8385613 C20.5814585,34.8538323 18.9586465,34.8536693 17.9277996,35.8381911 L16.6664978,37.0991227 C15.9174492,37.8592444 15.776557,39.0294482 16.3237778,39.9456404 C16.6656073,40.549142 16.5627471,41.306562 16.0723509,41.7970445 C15.5819547,42.2875271 14.8245528,42.3905206 14.2209911,42.0487973 C13.3042075,41.5022995 12.1341189,41.6432723 11.3733702,42.39188 L2.94780756,50.81776 C-0.978814533,54.7492865 -0.976785418,61.1189752 2.95234071,65.0479992 C6.88146684,68.9770231 13.2511557,68.9788866 17.18258,65.0521622 L25.6081276,56.6266222 C26.3575291,55.8662875 26.4987128,54.6957116 25.9515804,53.7790013 C25.6094335,53.1756331 25.7121545,52.4180875 26.2026225,51.9276194 C26.6930906,51.4371514 27.4506362,51.3344304 28.0540044,51.6765773 L28.05476,51.6769476 C28.9711751,52.2245628 30.1419458,52.0831666 30.9016404,51.3331244 L32.1622093,50.0725556 C33.1794184,49.0550856 33.1794184,47.4057175 32.1622093,46.3882476 L29.9004236,44.1268698 L32.2442249,41.7829778 L39.320524,48.8596018 L39.3205693,48.8595564 L41.021204,50.560312 C39.8408792,54.8193131 40.7672678,59.3859334 43.5139556,62.8482973 C46.1097484,66.1098788 50.0531296,68.0071837 54.2215831,68.0001481 C54.3551276,68.0001481 54.4894124,67.9982849 54.6233271,67.9942276 C55.898046,67.9730252 57.0326169,67.1810422 57.4919751,65.9917787 C57.9813441,64.7807497 57.7002353,63.3945207 56.7777636,62.4697942 L52.8566116,58.5486422 C52.0859155,57.7807538 51.6603011,56.7326772 51.6774143,55.6448665 C51.6945276,54.5570558 52.1528996,53.522886 52.9473689,52.7796204 C54.6220758,51.3112115 57.1551166,51.4180956 58.7001689,53.0223653 L62.4626844,56.7852511 C63.3678088,57.7109986 64.743848,57.9955137 65.9418818,57.5046231 C67.1634384,57.0114414 67.9718793,55.8358173 67.9952324,54.5186676 C68.0771829,50.1749227 66.1000135,46.0483085 62.6633892,43.3904053 C59.2267649,40.7325022 54.7355851,39.8564613 50.5520009,41.0279813 L48.8522956,39.3281778 L48.8524316,39.3280418 L41.7757169,32.2513271 L57.3185524,16.7083027 L59.9403982,16.2146982 Z M21.063884,26.7559449 L18.1793769,23.8714378 L17.3740453,24.1514391 C13.7934758,25.3929862 9.8268017,24.7197224 6.85640978,22.3662804 C4.14685927,20.2099813 2.61507345,16.9005027 2.72461644,13.4393916 C2.72612377,13.254772 2.84467186,13.0914706 3.019744,13.0328498 C3.22009348,12.947163 3.45241162,12.9918454 3.60668222,13.1457373 L7.52782667,17.0668818 C8.81631023,18.3576845 10.5734323,19.0703883 12.397041,19.0418767 C14.2206497,19.0133652 15.9546327,18.2460792 17.2021338,16.9156271 C19.6668067,14.1663789 19.534223,9.96511026 16.9011053,7.37673822 L13.1385822,3.6142 C12.9856253,3.47766466 12.9377064,3.25830794 13.0197938,3.07042667 C13.101492,2.85953778 13.3057014,2.72167964 13.5318413,2.72475244 C17.1391227,2.65675718 20.5513135,4.35853053 22.667216,7.28086845 C24.7831185,10.2032064 25.334827,13.976096 24.1442916,17.3819333 L23.8646529,18.1868947 L26.7489333,21.0712658 L26.7487973,21.0714093 L33.8254213,28.1480333 L28.1406969,33.8327578 L21.063884,26.7559449 Z M30.157524,48.2305867 L29.1880329,49.2000853 C27.5488038,48.3868749 25.5734328,48.7106088 24.2795289,50.0045161 C22.985625,51.2984234 22.6618964,53.2737953 23.4751111,54.9130222 L15.2590791,63.1286689 C12.3903103,65.9950566 7.74135724,65.9941321 4.87372871,63.1266037 C2.00610019,60.2590752 2.00501338,55.6101222 4.87130089,52.7412533 L13.0869778,44.5252516 C14.7263143,45.3384111 16.7017429,45.0146173 17.9957006,43.7206597 C19.2896582,42.4267021 19.6134519,40.4512734 18.8002924,38.8119369 L19.7694209,37.8428084 L22.9118898,40.9847258 L22.9117991,40.9848164 L26.0536182,44.1266431 L26.0534369,44.126832 L30.157524,48.2305867 Z M46.9289307,41.25152 L46.9290667,41.251384 L49.8134453,44.1356569 L50.6184067,43.8560258 C54.023356,42.665682 57.7952888,43.2166924 60.7174437,45.3313105 C63.6395985,47.4459285 65.3421748,50.8565477 65.2759502,54.4629604 C65.2801427,54.6908836 65.1419019,54.8972889 64.9295431,54.980176 C64.7418854,55.0626404 64.5224665,55.0148217 64.38614,54.8617502 L60.6232542,51.0988644 C58.035844,48.4662602 53.835983,48.3327156 51.0865489,50.7956222 C49.7551562,52.0429161 48.9870535,53.7771978 48.9581242,55.6013446 C48.9291948,57.4254915 49.6419168,59.1832578 50.933088,60.4721431 L54.8542324,64.3932876 C55.0078111,64.5477078 55.0525868,64.7797499 54.9674902,64.9802258 C54.907255,65.1574749 54.740406,65.2763342 54.553204,65.2753533 C50.9289477,65.3811021 47.4851296,63.6950275 45.3459366,60.7675251 C43.2067435,57.8400228 42.6466649,54.0467336 43.8485307,50.6259244 L44.128532,49.8205929 L34.1677333,39.8594618 L39.8522764,34.1748733 L46.9289307,41.25152 Z M27.9770813,42.2031498 L25.79682,40.0228884 L53.8091102,12.0105982 L54.4108044,8.81362356 L63.8999173,2.89334711 L65.1069929,4.10005244 L59.1863462,13.5891653 L55.9897418,14.1908596 L27.9770813,42.2031498 Z" id="Shape"></path>
                </g>
            </g>
        </g>
    </g>
</svg>