<svg width="16" height="19" viewBox="0 0 16 19" fill="none" xmlns="http://www.w3.org/2000/svg">
<path d="M12 4V8H16L12 4Z" fill="#2E2E2E"/>
<path fill-rule="evenodd" clip-rule="evenodd" d="M11.3181 8.42C11.0127 8.42 10.7684 8.18 10.7684 7.88V3.3H8.83461C8.34606 1.4 6.59542 0 4.49873 0C2.01527 0 0 1.98 0 4.42C0 6.38 1.32316 8.06 3.1145 8.62V18.46C3.1145 18.76 3.35878 19 3.66412 19H15.4504C15.7557 19 16 18.76 16 18.46V8.42H11.3181ZM1.07888 4.42C1.07888 2.56 2.6056 1.06 4.49873 1.06C6.39186 1.06 7.91857 2.56 7.91857 4.42C7.91857 6.28 6.39186 7.78 4.49873 7.78C2.6056 7.78 1.07888 6.28 1.07888 4.42ZM6.12723 16.92H12.9873C13.2926 16.92 13.5369 16.68 13.5573 16.38C13.5573 16.08 13.313 15.84 13.0076 15.84H6.12723C5.82188 15.84 5.57761 16.08 5.57761 16.38C5.57761 16.68 5.82188 16.92 6.12723 16.92ZM12.9873 14.2H6.12723C5.82188 14.2 5.57761 13.96 5.57761 13.66C5.57761 13.36 5.82188 13.12 6.12723 13.12H13.0076C13.313 13.12 13.5573 13.36 13.5573 13.66C13.5369 13.96 13.2926 14.2 12.9873 14.2ZM6.12723 11.48H12.9873C13.2926 11.48 13.5369 11.24 13.5573 10.94C13.5573 10.64 13.313 10.4 13.0076 10.4H6.12723C5.82188 10.4 5.57761 10.64 5.57761 10.94C5.57761 11.24 5.82188 11.48 6.12723 11.48Z" fill="#2E2E2E"/>
<path d="M6.85075 3.1495C6.65174 2.95017 6.31343 2.95017 6.09453 3.1495L4.54229 4.70432L3.90547 4.06645C3.70647 3.86711 3.36816 3.86711 3.14925 4.06645C2.95025 4.26578 2.95025 4.60465 3.14925 4.82392L4.16418 5.84053C4.26368 5.9402 4.40299 6 4.54229 6C4.68159 6 4.8209 5.9402 4.9204 5.84053L6.85075 3.90698C7.04975 3.68771 7.04975 3.34884 6.85075 3.1495Z" fill="#2E2E2E"/>
</svg>
